<svg width="128" height="128" viewBox="0 0 128 128" fill="none" xmlns="http://www.w3.org/2000/svg">
<path d="M22.9971 48L36.5252 80V48H22.9971ZM0 48V80L13.5282 48H0V48ZM12.3676 73.4741H18.5447L21.2562 79.9867H26.8544L18.1677 59.6878L12.3689 73.4741H12.3676ZM59.1974 68.6476L57.7132 73.0737C57.6598 73.2328 57.5795 73.2872 57.4164 73.2872H54.7076C54.5458 73.2872 54.491 73.2076 54.5177 73.0194L60.1025 57.2805C60.2095 57.0128 60.2911 56.7463 60.3445 55.8356C60.3445 55.7296 60.398 55.65 60.5077 55.65H64.2701C64.4051 55.65 64.4319 55.6766 64.4586 55.8091L70.7173 73.0605C70.744 73.2196 70.7173 73.3004 70.5555 73.3004H67.5204C67.3867 73.3004 67.3052 73.2474 67.2503 73.1413L65.6726 68.6608H59.1987V68.6476H59.1974ZM64.8089 65.718C64.242 63.9403 62.9598 60.2088 62.421 58.337H62.3942C61.9624 60.1425 60.87 63.2842 60.0611 65.7193H64.8076L64.8089 65.718ZM71.6853 66.7877C71.6853 62.8971 74.6134 59.7806 79.3866 59.7806C79.765 59.7806 80.0886 59.8071 80.5472 59.8601V54.3536C80.5472 54.2197 80.6007 54.1654 80.709 54.1654H83.6638C83.7975 54.1654 83.7975 54.2184 83.7975 54.3258V70.5471C83.7975 71.0827 83.851 71.7773 83.9045 72.2718C83.9045 72.4056 83.8777 72.46 83.744 72.513C82.125 73.2039 80.3805 73.5589 78.6178 73.5563C74.6936 73.5695 71.6853 71.3094 71.6853 66.7891V66.7877ZM80.5472 62.6824C80.1969 62.5498 79.765 62.4968 79.2797 62.4968C76.865 62.4968 75.0573 64.0345 75.0573 66.6273C75.0573 69.5569 76.8249 70.7606 78.9828 70.7606C79.5217 70.7606 80.0618 70.7075 80.5606 70.5458V62.6824H80.5472ZM99.4328 66.6022C99.4328 70.7606 96.7494 73.5549 92.9322 73.5549C88.3996 73.5549 86.4034 70.0911 86.4034 66.6817C86.4034 62.8706 88.9251 59.7806 92.9856 59.7806C97.1666 59.7806 99.4328 62.9236 99.4328 66.6008V66.6022ZM89.7086 66.6287C89.7086 69.1022 90.9213 70.8136 92.9856 70.8136C94.6703 70.8136 96.1009 69.4495 96.1009 66.6817C96.1009 64.4481 95.1303 62.4954 92.8239 62.4954C91.0162 62.4954 89.7086 64.0729 89.7086 66.6287ZM105.015 54.164C105.205 54.164 105.258 54.1906 105.258 54.3788L105.285 60.1558C106.083 59.9017 106.916 59.7751 107.753 59.7806C111.651 59.7806 114.147 62.522 114.147 66.1196C114.147 71.0946 110.248 73.5549 106.229 73.5549C104.826 73.5549 103.464 73.368 102.17 72.9664C102.061 72.9399 101.981 72.806 101.981 72.7251V54.3536C101.981 54.2197 102.061 54.1654 102.168 54.1654H105.016L105.015 54.164ZM107.186 62.5498C106.242 62.5498 105.729 62.6824 105.285 62.8441V70.693C105.662 70.799 106.067 70.8255 106.526 70.8255C108.752 70.8255 110.802 69.4363 110.802 66.4537C110.815 63.886 109.331 62.5498 107.186 62.5498ZM119.381 67.4161C119.462 69.3024 120.704 70.8003 123.469 70.8003C124.681 70.8003 125.802 70.5856 126.826 70.1574C126.908 70.1044 126.989 70.1309 126.989 70.2648V72.4984C126.989 72.6575 126.936 72.7384 126.827 72.7927C125.802 73.2739 124.601 73.5682 122.767 73.5682C117.83 73.5682 116.076 70.1309 116.076 66.8288C116.076 63.0973 118.356 59.7939 122.443 59.7939C126.449 59.7939 128 62.909 128 65.4635C128 66.2124 127.973 66.8288 127.893 67.135C127.866 67.2424 127.811 67.2968 127.676 67.3233C127.299 67.4028 126.219 67.4293 124.885 67.4293H119.38V67.4161H119.381ZM123.414 65.1029C124.439 65.1029 124.791 65.1029 124.898 65.0764V64.863C124.898 64.0862 124.358 62.3616 122.295 62.3616C120.42 62.3616 119.583 63.78 119.367 65.1029H123.414Z" fill="black"/>
</svg>
