<svg width="128" height="128" viewBox="0 0 128 128" fill="none" xmlns="http://www.w3.org/2000/svg">
<path fill-rule="evenodd" clip-rule="evenodd" d="M79.4086 75.4999C71.9696 81.0416 61.1906 84.0001 51.9062 84.0001C38.8904 84.0001 27.1736 79.1322 18.3092 71.0377C17.6125 70.4012 18.2366 69.5339 19.0716 70.0295C28.6394 75.6561 40.4676 79.0422 52.6872 79.0422C60.9275 79.0422 69.9943 77.3195 78.3273 73.7415C79.5874 73.2001 80.64 74.5749 79.4086 75.4999V75.4999Z" fill="black"/>
<path fill-rule="evenodd" clip-rule="evenodd" d="M82.5022 71.9227C81.5559 70.6938 76.217 71.3422 73.8217 71.629C73.0913 71.719 72.98 71.0774 73.6378 70.6157C77.8887 67.5895 84.8655 68.4636 85.6786 69.4786C86.4916 70.4969 85.466 77.5662 81.4716 80.9422C80.8592 81.4598 80.2739 81.1832 80.5472 80.4958C81.4446 78.2316 83.4553 73.1566 82.5039 71.9227H82.5022ZM73.987 49.2585V46.3188C73.987 45.8724 74.3227 45.5737 74.7225 45.5737H87.745C87.8436 45.5702 87.9419 45.587 88.0339 45.6231C88.1259 45.6592 88.2096 45.7138 88.2799 45.7835C88.3501 45.8533 88.4055 45.9367 88.4426 46.0288C88.4797 46.1208 88.4978 46.2195 88.4956 46.3188V48.8359C88.4906 49.2602 88.1397 49.8102 87.5172 50.6843L80.7698 60.4251C83.2765 60.3623 85.9215 60.7391 88.1954 62.0359C88.7082 62.3278 88.8465 62.7572 88.887 63.1798V66.3165C88.887 66.7459 88.418 67.2466 87.9272 66.9869C83.9226 64.8653 78.6006 64.6327 74.1709 67.0107C73.7205 67.2585 73.2465 66.7629 73.2465 66.3334V63.353C73.2465 62.8743 73.2515 62.0579 73.7255 61.3315L81.5424 49.9969H74.7394C74.3227 49.9969 73.987 49.6981 73.987 49.2585V49.2585ZM26.4869 67.6064H22.5245C22.345 67.5971 22.1748 67.5233 22.0448 67.3984C21.9147 67.2735 21.8336 67.1058 21.8161 66.9258V46.368C21.8161 45.9573 22.1568 45.6314 22.5802 45.6314H26.2744C26.659 45.6484 26.966 45.9471 26.993 46.3188V49.0056H27.0655C28.0304 46.4088 29.8404 45.1969 32.2813 45.1969C34.761 45.1969 36.3095 46.4088 37.4245 49.0056C38.3826 46.4088 40.562 45.1969 42.895 45.1969C44.5565 45.1969 46.3716 45.8894 47.4815 47.4441C48.7348 49.1754 48.4767 51.6874 48.4767 53.8888L48.4717 66.863C48.4702 66.9622 48.4492 67.0601 48.4101 67.1512C48.3709 67.2422 48.3143 67.3246 48.2435 67.3936C48.1727 67.4627 48.0891 67.517 47.9974 67.5535C47.9057 67.59 47.8078 67.608 47.7092 67.6064H43.7536C43.5634 67.5958 43.3843 67.5133 43.252 67.3754C43.1197 67.2376 43.044 67.0546 43.04 66.863V55.968C43.04 55.1007 43.1176 52.9383 42.9287 52.1151C42.6335 50.7352 41.7479 50.3465 40.6008 50.3465C39.641 50.3465 38.639 50.9932 38.2308 52.0302C37.826 53.0656 37.8631 54.8019 37.8631 55.968V66.8647C37.8595 67.0647 37.7772 67.2552 37.6343 67.3942C37.4914 67.5333 37.2994 67.6096 37.1006 67.6064H33.145C32.9544 67.597 32.7746 67.5148 32.642 67.3767C32.5095 67.2386 32.4342 67.055 32.4314 66.863L32.4264 55.968C32.4264 53.6766 32.7991 50.3007 29.9855 50.3007C27.1381 50.3007 27.2494 53.5918 27.2494 55.9697V66.863C27.2479 66.9622 27.2269 67.0601 27.1878 67.1512C27.1486 67.2422 27.092 67.3246 27.0212 67.3936C26.9504 67.4627 26.8668 67.517 26.7751 67.5535C26.6834 67.59 26.5855 67.608 26.4869 67.6064V67.6064ZM99.7081 45.1969C105.587 45.1969 108.768 50.3007 108.768 56.7895C108.768 63.061 105.253 68.0358 99.7098 68.0358C93.9357 68.0358 90.7931 62.932 90.7931 56.5705C90.7931 50.1717 93.9745 45.1986 99.7081 45.1986V45.1969ZM99.7419 49.3943C96.8236 49.3943 96.6381 53.4169 96.6381 55.9239C96.6381 58.4359 96.5993 63.7994 99.7081 63.7994C102.778 63.7994 102.923 59.4712 102.923 56.8353C102.923 55.1007 102.851 53.0283 102.333 51.3819C101.888 49.951 101 49.3943 99.7419 49.3943V49.3943ZM116.388 67.6064H112.444C112.254 67.5958 112.075 67.5133 111.942 67.3754C111.81 67.2376 111.734 67.0546 111.73 66.863L111.724 46.3018C111.745 46.1142 111.835 45.9413 111.976 45.8172C112.118 45.6931 112.3 45.6268 112.488 45.6314H116.16C116.324 45.6372 116.481 45.6963 116.609 45.7997C116.737 45.9031 116.828 46.0453 116.868 46.2051V49.3485H116.939C118.049 46.5378 119.603 45.1969 122.337 45.1969C124.117 45.1969 125.849 45.8453 126.963 47.6189C128 49.2653 128 52.0319 128 54.0178V66.9597C127.971 67.142 127.878 67.3077 127.738 67.4265C127.597 67.5452 127.419 67.6091 127.236 67.6064H123.263C123.09 67.5965 122.926 67.5267 122.798 67.4089C122.67 67.2911 122.587 67.1324 122.562 66.9597V55.7932C122.562 53.5459 122.818 50.2566 120.082 50.2566C119.119 50.2566 118.231 50.91 117.791 51.9012C117.235 53.1573 117.162 54.4082 117.162 55.7932V66.863C117.155 67.0643 117.071 67.2549 116.926 67.3939C116.781 67.5329 116.588 67.6092 116.388 67.6064V67.6064ZM63.6061 57.7875C63.6061 59.349 63.6449 60.6492 62.8639 62.0359C62.2364 63.1629 61.2327 63.8554 60.1245 63.8554C58.6029 63.8554 57.7123 62.6842 57.7123 60.953C57.7123 57.5414 60.7368 56.9202 63.6061 56.9202V57.7875ZM67.6006 67.5504C67.4731 67.6603 67.3153 67.7284 67.1484 67.7457C66.9814 67.763 66.8131 67.7286 66.6661 67.6472C65.3503 66.5439 65.1108 66.0296 64.3922 64.9756C62.2195 67.2177 60.6761 67.8882 57.8624 67.8882C54.5241 67.8882 51.9331 65.8107 51.9331 61.6472C51.9331 58.3968 53.6706 56.1819 56.157 55.1007C58.3077 54.1434 61.3103 53.9737 63.6061 53.7089V53.1912C63.6061 52.239 63.6787 51.112 63.122 50.2888C62.6429 49.5522 61.7169 49.2467 60.8987 49.2467C59.389 49.2467 58.0463 50.0308 57.7173 51.6534C57.6499 52.0133 57.3884 52.368 57.0257 52.385L53.1864 51.9691C52.8643 51.8945 52.5016 51.6297 52.596 51.129C53.4766 46.4189 57.6903 45 61.4554 45C63.3835 45 65.9019 45.5177 67.4235 46.9943C69.3515 48.8138 69.1677 51.241 69.1677 53.8854V60.1264C69.1677 62.0019 69.9352 62.8251 70.6605 63.8384C70.9102 64.1982 70.9659 64.6327 70.6437 64.9026C69.621 65.7769 68.6088 66.6635 67.6073 67.5623L67.6006 67.5504V67.5504ZM11.673 57.7875C11.673 59.349 11.7118 60.6509 10.9308 62.0359C10.3016 63.1629 9.30468 63.8554 8.19135 63.8554C6.66981 63.8554 5.78422 62.6842 5.78422 60.953C5.78422 57.5414 8.80874 56.9202 11.673 56.9202V57.7875ZM15.6675 67.5504C15.5398 67.6607 15.3818 67.729 15.2144 67.7463C15.0471 67.7636 14.8785 67.729 14.7313 67.6472C13.4155 66.5439 13.1827 66.0296 12.4591 64.9773C10.2864 67.2177 8.74801 67.8899 5.92928 67.8899C2.59607 67.8899 0 65.8107 0 61.6472C0 58.3968 1.7442 56.1819 4.22388 55.1007C6.37461 54.1434 9.37721 53.9737 11.673 53.7089V53.1912C11.673 52.2407 11.7455 51.112 11.1939 50.2888C10.7098 49.5522 9.78374 49.2484 8.97068 49.2484C7.46095 49.2484 6.11315 50.0308 5.78253 51.6534C5.71674 52.0133 5.45528 52.368 5.09767 52.385L1.25333 51.9691C0.931142 51.8962 0.57353 51.6297 0.662933 51.129C1.55022 46.4206 5.75723 45.0034 9.52228 45.0034C11.4504 45.0034 13.9688 45.5194 15.4904 46.996C17.4184 48.8155 17.2346 51.2444 17.2346 53.8871V60.1264C17.2346 62.0019 18.0021 62.8251 18.7274 63.8384C18.9838 64.1999 19.0395 64.6327 18.7156 64.9026C17.693 65.7769 16.6808 66.6635 15.6793 67.5623L15.6675 67.5504" fill="black"/>
</svg>
