<svg width="128" height="128" viewBox="0 0 128 128" fill="none" xmlns="http://www.w3.org/2000/svg">
<path d="M41.9174 92.498H36.5371V72.0908H41.9174V92.498Z" fill="black"/>
<mask id="mask0_213_166" style="mask-type:alpha" maskUnits="userSpaceOnUse" x="0" y="27" width="128" height="73">
<path d="M0 100L128 100V27L0 27L0 100Z" fill="white"/>
</mask>
<g mask="url(#mask0_213_166)">
<path d="M83.8281 77.4081C83.6124 77.2985 81.927 76.2988 79.4222 76.2988C76.0365 76.2988 73.6876 78.6568 73.6876 81.8401C73.6876 84.9271 75.9354 87.3864 79.4222 87.3864C81.8839 87.3864 83.5975 86.4067 83.8281 86.2838V91.86C83.1712 92.0426 81.3813 92.5989 79.0556 92.5989C73.1651 92.5989 67.9946 88.5339 67.9946 81.8385C67.9946 75.6363 72.6724 71.0863 79.0556 71.0863C81.5107 71.0863 83.3321 71.6841 83.8281 71.8319V77.4081ZM29.1648 77.4081C28.9541 77.2985 27.2704 76.2988 24.7655 76.2988C21.3732 76.2988 19.026 78.6568 19.026 81.8401C19.026 84.9271 21.2754 87.3864 24.7655 87.3864C27.2272 87.3864 28.9392 86.4067 29.1648 86.2838V91.86C28.5145 92.0426 26.7263 92.5989 24.3873 92.5989C18.5018 92.5989 13.3379 88.5339 13.3379 81.8385C13.3379 75.6363 18.0158 71.0863 24.389 71.0863C26.854 71.0863 28.6721 71.6841 29.1648 71.8319V77.4081ZM100.302 76.3769C97.1949 76.3769 94.8874 78.8246 94.8874 81.8401C94.8874 84.8624 97.1949 87.3084 100.302 87.3084C103.406 87.3084 105.72 84.8624 105.72 81.8401C105.72 78.8246 103.406 76.3769 100.302 76.3769ZM111.268 81.8401C111.268 87.7833 106.685 92.5989 100.304 92.5989C93.9187 92.5989 89.342 87.7833 89.342 81.8385C89.342 75.9069 93.9203 71.0863 100.302 71.0863C106.685 71.0863 111.268 75.9069 111.268 81.8401ZM61.4604 76.1776C61.3825 76.1527 59.1779 75.5433 57.3665 75.5433C55.268 75.5433 54.1268 76.2474 54.1268 77.2454C54.1268 78.5107 55.6662 78.9524 56.5271 79.2248L57.9719 79.6847C61.3725 80.7674 62.9202 83.0972 62.9202 85.6279C62.9202 90.847 58.3352 92.6006 54.3275 92.6006C51.5423 92.6006 48.933 92.0858 48.6759 92.0327V87.2503C49.137 87.3665 51.3333 88.0241 53.6208 88.0241C56.2268 88.0241 57.4245 87.2602 57.4245 86.0845C57.4245 85.0317 56.3877 84.424 55.0889 84.0155C54.7737 83.9092 54.296 83.7598 53.9708 83.6535C51.0546 82.7302 48.6228 81.0132 48.6228 77.5758C48.6228 73.6901 51.529 71.0814 56.3562 71.0814C58.9058 71.0814 61.3045 71.7007 61.4604 71.7423V76.176V76.1776Z" fill="black"/>
<path d="M7.7844 49.1298C7.7844 47.6984 6.61659 46.5377 5.18502 46.5377C3.75346 46.5377 2.58398 47.6984 2.58398 49.1282L2.58398 54.5831C2.61961 55.9951 3.77327 57.1211 5.18419 57.1211C6.59512 57.1211 7.74878 55.9951 7.7844 54.5831L7.7844 49.1298ZM22.0652 41.9728C22.0652 40.5352 20.9011 39.3699 19.465 39.3699C18.029 39.3699 16.8648 40.5352 16.8648 41.9728V54.5831C16.8648 56.0207 18.029 57.186 19.465 57.186C20.9011 57.186 22.0652 56.0207 22.0652 54.5831L22.0652 41.9711V41.9728ZM36.3477 32.1788C36.3477 30.7474 35.1799 29.585 33.7484 29.585C32.3151 29.585 31.1473 30.7474 31.1473 32.1788L31.1473 59.7657C31.1829 61.1777 32.3366 62.3037 33.7475 62.3037C35.1585 62.3037 36.3121 61.1777 36.3477 59.7657L36.3477 32.1788ZM50.6286 41.9728C50.6286 40.5352 49.4644 39.3699 48.0284 39.3699C46.5923 39.3699 45.4281 40.5352 45.4281 41.9728V54.5831C45.4281 56.0207 46.5923 57.186 48.0284 57.186C49.4644 57.186 50.6286 56.0207 50.6286 54.5831V41.9711V41.9728ZM64.8945 49.1298C64.8954 47.6998 63.7386 46.5395 62.31 46.5377C60.8786 46.5368 59.7161 47.6952 59.7106 49.1282V54.5831C59.7106 56.0161 60.8711 57.1777 62.3026 57.1777C63.734 57.1777 64.8945 56.0161 64.8945 54.5831V49.1298ZM79.1819 41.9728C79.1464 40.5654 77.9964 39.443 76.59 39.443C75.1836 39.443 74.0337 40.5654 73.9981 41.9728V54.5831C73.9981 56.0161 75.1585 57.1777 76.59 57.1777C78.0215 57.1777 79.1819 56.0161 79.1819 54.5831V41.9711V41.9728ZM93.4727 32.1788C93.4727 30.7458 92.3123 29.5842 90.8808 29.5842C89.4493 29.5842 88.2889 30.7458 88.2889 32.1788V59.7657C88.2471 60.7198 88.7318 61.6199 89.5509 62.1094C90.3701 62.5989 91.3915 62.5989 92.2107 62.1094C93.0298 61.6199 93.5145 60.7198 93.4727 59.7657V32.1788ZM107.76 41.9728C107.76 40.5397 106.601 39.3757 105.136 39.3757C103.705 39.3766 102.545 40.5383 102.545 41.9711V54.5831C102.545 56.0228 103.706 57.1836 105.136 57.1836C106.601 57.1836 107.76 56.0228 107.76 54.5831V41.9711V41.9728ZM122.021 49.1298C122.021 47.6955 120.86 46.5327 119.427 46.5327C117.994 46.5327 116.832 47.6955 116.832 49.1298V54.5831C116.832 56.0228 117.995 57.1852 119.427 57.1852C120.857 57.1852 122.019 56.0228 122.019 54.5831V49.1298H122.021Z" fill="black"/>
<path d="M119.023 89.4936V89.819H118.098V92.2285H117.716V89.8207H116.787V89.4936H119.023ZM119.217 89.4936H119.813L120.631 91.737H120.644L121.435 89.4952H122.019V92.2285H121.629V89.9868H121.616L120.787 92.2285H120.427L119.617 89.9868H119.599V92.2285H119.217V89.4936Z" fill="black"/>
</g>
</svg>
