<svg width="128" height="128" viewBox="0 0 128 128" fill="none" xmlns="http://www.w3.org/2000/svg">
<path d="M110.623 60.2221C108.46 60.7704 102.745 61.0742 102.745 61.0742L102.043 63.5443C102.043 63.5443 104.872 63.28 106.944 63.5023C106.944 63.5023 107.61 63.443 107.684 64.3125C107.72 65.2041 107.628 66.1353 107.628 66.1353C107.628 66.1353 107.571 66.6837 106.888 66.8269C106.092 66.9653 100.731 67.2296 100.731 67.2296L99.86 70.4283C99.86 70.4283 99.5465 71.1594 100.266 70.9568C100.934 70.7543 106.554 69.5786 107.294 69.7416C108.072 69.9441 108.959 71.1174 108.701 72.1721C108.404 73.4466 102.783 77.3765 99.3796 77.1122C99.3796 77.1122 97.5865 77.2357 96.0866 74.5804C94.6454 72.0511 96.5873 67.2913 96.5873 67.2913C96.5873 67.2913 95.719 65.0633 96.3663 64.2532C96.3663 64.2532 96.7362 63.9074 97.8459 63.8086L99.233 60.6889C99.233 60.6889 97.6609 60.7877 96.7362 59.5329C95.8859 58.3177 95.8114 57.7916 96.4768 57.468C97.1783 57.0629 103.69 55.7884 108.165 55.9489C108.165 55.9489 109.737 55.7464 111.124 58.7228C111.124 58.7228 111.751 59.938 110.641 60.2221H110.623V60.2221ZM93.759 72.2116C93.2041 73.6912 91.6681 75.2498 89.8186 74.2988C87.9331 73.3256 84.9558 66.6837 84.9558 66.6837C84.9558 66.6837 83.8462 64.2137 83.6251 64.2927C83.6251 64.2927 83.3838 63.8061 83.253 66.5207C83.0703 69.213 83.2913 74.4593 82.2741 75.2893C81.3493 76.0994 80.2397 75.7561 79.6126 74.8051C79.0939 73.8517 78.8706 71.5645 79.166 67.5729C79.4999 63.5838 80.3321 59.3304 81.3854 58.0139C82.4951 56.6801 83.3838 57.6508 83.7153 58.0139C83.7153 58.0139 85.1408 59.4317 87.5451 63.6258L87.9511 64.394C87.9511 64.394 90.1344 68.3831 90.3555 68.3633C90.3555 68.3633 90.5404 68.5658 90.6893 68.4053C90.9103 68.3435 90.8359 67.0468 90.8359 67.0468C90.8359 67.0468 90.4299 62.7341 88.3954 55.4426C88.3954 55.4426 88.1 54.5114 88.303 53.6197C88.4879 52.8095 89.2818 53.2146 89.2818 53.2146C89.2818 53.2146 92.3515 54.8349 93.8514 60.3036C95.3288 65.7722 94.3319 70.7345 93.777 72.2116H93.759V72.2116ZM78.7059 58.1769C78.4082 58.745 78.2774 59.5354 77.003 59.7577C77.003 59.7577 64.6137 60.7087 64.0025 61.6596C64.0025 61.6596 63.5965 62.2277 64.2619 62.3685C64.9656 62.5316 67.7759 62.9366 69.1066 63.0182C70.5501 63.0182 75.3949 63.0577 77.17 65.4462C77.17 65.4462 78.1849 66.5824 78.1488 69.1537C78.1127 71.7868 77.6887 72.718 76.7437 73.6689C75.7648 74.5606 67.3677 78.693 61.95 72.3746C61.95 72.3746 59.4712 69.3365 62.8184 67.027C62.8184 67.027 65.2227 65.4067 71.3824 67.2913C71.3824 67.2913 73.2319 68.02 73.1575 68.7684C73.0447 69.5786 71.6237 70.3887 69.5487 70.3492C67.5526 70.2875 66.0753 69.2352 66.3685 69.418C66.6482 69.5168 64.2055 68.1212 63.4476 69.0722C62.7079 69.9639 62.8928 70.49 63.6326 71.0383C65.4821 72.2116 72.7492 71.7868 74.9145 69.134C74.9145 69.134 75.7828 68.0595 74.4701 67.19C73.1755 66.3799 69.4021 65.8735 67.9428 65.8118C66.5557 65.7303 61.3568 65.8118 60.5809 64.3347C60.5809 64.3347 59.8411 63.28 60.6554 60.4049C61.5057 57.3667 67.5526 56.1935 70.1802 55.9489C70.1802 55.9489 77.391 55.6253 78.742 57.2457C78.742 57.2457 78.927 57.6113 78.7059 58.1571V58.1769V58.1769ZM58.251 75.9784C57.3827 76.6873 55.5332 76.3835 54.9964 75.5733C54.4776 74.8644 54.2927 72.0708 54.3874 67.6742C54.516 63.1787 54.5724 57.6705 55.4971 56.7813C56.4218 55.9094 56.9744 56.6776 57.3466 57.2654C57.7142 57.8731 58.1969 58.5425 58.2713 59.938C58.3819 61.3558 58.6954 68.6474 58.6954 68.6474C58.6954 68.6474 59.1013 75.2917 58.2691 75.9784H58.251ZM60.1005 52.2834C57.5496 53.2344 55.8106 52.9305 54.331 52.2216C53.6837 53.4986 53.2935 53.884 52.8153 53.9655C52.0755 54.0445 51.4282 52.7502 51.3358 52.3451C51.1869 52.0413 50.835 51.493 51.2613 50.258C49.8178 48.8402 49.7073 46.9358 49.9667 45.6612C50.2982 44.1619 52.7409 38.5327 60.1389 37.8633C60.1389 37.8633 63.7634 37.5793 64.3904 39.6862H64.5032C64.5032 39.6862 68.015 39.6862 67.9406 43.1295C67.9406 46.5727 64.0589 50.8656 60.1005 52.3427V52.2834ZM63.3935 42.4823C61.0614 42.8874 57.4752 46.2886 55.7542 49.102C58.3999 49.6306 63.0236 49.428 65.0919 44.8511C65.0919 44.8511 66.073 41.9759 63.3913 42.4798L63.3935 42.4823ZM53.1649 44.7103C52.4251 46.0268 52.3891 46.8147 52.7409 47.3409C53.6093 45.9255 55.1452 43.6976 57.4549 41.9562C55.6798 42.1563 54.1844 42.9689 53.1649 44.7103V44.7103ZM116.172 75.8376C114.471 80.4146 113.027 85.0508 112.195 91.999C112.195 91.999 112.01 93.3551 110.993 92.9105C109.978 92.5054 108.311 90.6825 107.941 88.1087C107.571 84.7495 108.941 79.0783 111.733 72.555C110.921 71.1396 110.346 69.0327 110.808 66.0761C110.808 66.0761 111.548 60.6074 116.542 55.6649C116.542 55.6649 117.132 55.119 117.466 55.3018C117.872 55.5043 117.708 57.2457 117.374 58.1374C117.078 58.9871 114.859 63.2009 114.859 63.2009C114.859 63.2009 113.472 66.0761 113.86 68.3238C116.485 63.9074 122.46 54.956 126.159 57.7916C128.505 59.6145 128.505 65.4882 126.75 68.8894C125.363 71.5818 121.443 77.1542 116.208 75.8549L116.172 75.8376V75.8376ZM123.901 62.0845C122.532 63.7048 120.092 66.785 118.17 70.9568C120.202 70.7123 122.182 69.4773 122.794 68.8499C123.773 67.8989 126.028 65.3252 125.676 61.9239C125.676 61.9239 125.455 60.1406 123.901 62.087V62.0845ZM41.053 78.2261C34.5054 80.4146 28.3299 79.4019 24.9647 78.4287C24.8723 79.928 24.7234 80.5554 24.5024 80.7999C24.243 81.121 22.098 82.4598 20.9139 80.5554C20.3952 79.6439 20.138 78.0038 19.9892 76.5045C12.4063 72.7377 8.89224 67.19 8.78172 66.9875C8.59677 66.785 6.8781 64.8188 8.59677 62.3908C10.2072 60.2023 15.5324 57.9941 20.3027 57.1247C20.4876 52.6687 20.9342 49.2255 21.5049 47.7064C22.1905 45.8835 23.0611 47.5039 23.837 48.7191C24.464 49.6306 24.852 53.5382 24.8903 56.6578C27.9961 56.4948 29.8839 56.7393 33.3416 57.468C37.8909 58.3177 40.9222 60.8692 40.6831 63.7468C40.4599 66.5824 38.0939 67.7557 37.1691 67.8372C36.2444 67.9187 34.7648 67.1703 34.7648 67.1703C33.7295 66.6417 34.6746 66.1576 35.8745 65.5895C37.2052 64.8806 36.912 64.1717 36.912 64.1717C36.4293 62.5513 30.529 61.4793 24.667 61.4793C24.667 65.0214 24.7978 70.8951 24.8903 74.3186C28.9953 75.1682 32.065 74.9855 32.065 74.9855C32.065 74.9855 47.0458 74.5211 47.4699 64.0506C47.9322 53.5604 32.4913 43.5148 21.1169 40.3556C9.76285 37.0952 3.32799 39.4022 2.77314 39.706C2.16191 40.032 2.71675 40.1506 2.71675 40.1506C2.71675 40.1506 3.32573 40.2543 4.43768 40.6594C5.54512 41.0645 4.65872 41.6721 4.65872 41.6721C2.71675 42.4008 0.553752 41.9759 0.127468 41.0052C-0.296561 40.0518 0.404891 39.1799 1.23716 37.9053C2.01304 36.5888 2.9017 36.6283 2.9017 36.6283C16.9556 31.2609 34.1175 40.8817 34.1175 40.8817C50.1697 49.7516 52.9056 60.1826 52.6124 64.2334C52.353 68.2225 50.9478 74.9657 41.053 78.2459V78.2261V78.2261ZM10.1688 63.7493C8.57873 64.5595 9.68842 65.8538 9.68842 65.8538C12.6837 69.3587 16.3466 71.5669 19.8606 72.9427C20.2666 66.8665 20.2305 64.7002 20.2305 61.6423C14.7948 62.0474 11.6484 63.0206 10.1711 63.7493H10.1688Z" fill="black"/>
</svg>
