<svg width="128" height="128" viewBox="0 0 128 128" fill="none" xmlns="http://www.w3.org/2000/svg">
<path d="M19.4352 49.6277C19.4352 51.0789 18.2582 52.2554 16.8061 52.2554C15.3541 52.2554 14.177 51.0789 14.177 49.6277C14.177 48.1764 15.3541 47 16.8061 47C18.2582 47 19.4352 48.1764 19.4352 49.6277ZM16.8061 54.3307C15.296 54.3307 14.0724 55.5543 14.0724 57.063C14.0724 58.5716 15.2966 59.7953 16.8061 59.7953C18.3156 59.7953 19.5399 58.5716 19.5399 57.063C19.5399 55.5543 18.3163 54.3307 16.8061 54.3307ZM16.8061 61.6621C15.2378 61.6621 13.967 62.9329 13.967 64.4997C13.967 66.0664 15.2385 67.3372 16.8061 67.3372C18.3737 67.3372 19.6452 66.0664 19.6452 64.4997C19.6452 62.9329 18.3744 61.6621 16.8061 61.6621ZM16.8061 69.2034C15.296 69.2034 14.0724 70.427 14.0724 71.9356C14.0724 73.4443 15.2966 74.6679 16.8061 74.6679C18.3156 74.6679 19.5399 73.4443 19.5399 71.9356C19.5399 70.427 18.3163 69.2034 16.8061 69.2034ZM16.8061 76.7446C15.3541 76.7446 14.177 77.9211 14.177 79.3723C14.177 80.8236 15.3541 82 16.8061 82C18.2582 82 19.4352 80.8236 19.4352 79.3723C19.4352 77.9204 18.2582 76.7446 16.8061 76.7446ZM24.0458 53.98C22.3421 53.98 20.9611 55.3602 20.9611 57.063C20.9611 58.7658 22.3421 60.1459 24.0458 60.1459C25.7495 60.1459 27.1304 58.7658 27.1304 57.063C27.1304 55.3602 25.7495 53.98 24.0458 53.98ZM24.0458 61.3121C22.2839 61.3121 20.8558 62.7394 20.8558 64.5003C20.8558 66.2612 22.2839 67.6886 24.0458 67.6886C25.8077 67.6886 27.2357 66.2612 27.2357 64.5003C27.2357 62.7394 25.8077 61.3121 24.0458 61.3121ZM24.0458 68.8534C22.3421 68.8534 20.9611 70.2335 20.9611 71.9363C20.9611 73.6391 22.3421 75.0193 24.0458 75.0193C25.7495 75.0193 27.1304 73.6391 27.1304 71.9363C27.1304 70.2335 25.7495 68.8534 24.0458 68.8534ZM31.4783 60.9614C29.5229 60.9614 27.9382 62.5453 27.9382 64.4997C27.9382 66.454 29.5229 68.0379 31.4783 68.0379C33.4337 68.0379 35.0185 66.454 35.0185 64.4997C35.0185 62.5453 33.4337 60.9614 31.4783 60.9614ZM9.47277 54.6807C8.15616 54.6807 7.08919 55.7471 7.08919 57.063C7.08919 58.3789 8.15616 59.4453 9.47277 59.4453C10.7894 59.4453 11.8563 58.3789 11.8563 57.063C11.8563 55.7471 10.7887 54.6807 9.47277 54.6807ZM9.47277 62.0128C8.09802 62.0128 6.98386 63.1263 6.98386 64.5003C6.98386 65.8743 8.09802 66.9879 9.47277 66.9879C10.8475 66.9879 11.9617 65.8743 11.9617 64.5003C11.961 63.1263 10.8468 62.0128 9.47277 62.0128ZM9.47277 69.5541C8.15616 69.5541 7.08919 70.6204 7.08919 71.9363C7.08919 73.2522 8.15616 74.3186 9.47277 74.3186C10.7894 74.3186 11.8563 73.2522 11.8563 71.9363C11.8563 70.6204 10.7887 69.5541 9.47277 69.5541ZM2.13804 62.3628C0.957536 62.3628 0 63.3198 0 64.4997C0 65.6802 0.957536 66.6365 2.13804 66.6365C3.31855 66.6365 4.27608 65.6795 4.27608 64.4997C4.27608 63.3198 3.31923 62.3628 2.13804 62.3628ZM61.9143 59.893C61.6605 59.893 61.4526 60.1008 61.4526 60.3544V78.9102C61.4526 79.1638 61.6605 79.3716 61.9143 79.3716H64.1474C64.4011 79.3716 64.6091 79.1638 64.6091 78.9102V60.3544C64.6091 60.1008 64.4011 59.893 64.1474 59.893H61.9143ZM63.0305 52.0961C61.852 52.0961 60.8931 53.0545 60.8931 54.233C60.8931 55.4108 61.852 56.3698 63.0305 56.3698C64.2096 56.3698 65.1685 55.4115 65.1685 54.233C65.1685 53.0545 64.2096 52.0961 63.0305 52.0961ZM109.591 59.893C109.337 59.893 109.129 60.1008 109.129 60.3544V78.9102C109.129 79.1638 109.337 79.3716 109.591 79.3716H111.824C112.078 79.3716 112.285 79.1638 112.285 78.9102V60.3544C112.285 60.1008 112.078 59.893 111.824 59.893H109.591ZM110.706 52.0961C109.536 52.0961 108.554 53.0545 108.554 54.2323C108.554 55.4101 109.536 56.3685 110.706 56.3685C111.877 56.3685 112.829 55.4101 112.829 54.2323C112.83 53.0545 111.877 52.0961 110.706 52.0961ZM80.3366 63.0477C80.5903 63.0477 80.7983 62.8399 80.7983 62.5863V60.3544C80.7983 60.1008 80.5903 59.893 80.3366 59.893H75.5756V52.7428C75.5756 52.4892 75.3677 52.2813 75.1139 52.2813H72.8801C72.6264 52.2813 72.4185 52.4892 72.4185 52.7428V59.893H70.0232C69.7695 59.893 69.5616 60.1008 69.5616 60.3544V62.5863C69.5616 62.8399 69.7695 63.0477 70.0232 63.0477H72.4185V73.8722C72.4185 77.1603 74.629 79.3703 77.9195 79.3703H80.3373C80.591 79.3703 80.7989 79.1625 80.7989 78.9089V76.677C80.7989 76.4234 80.591 76.2155 80.3373 76.2155H78.1992C76.6549 76.2155 75.5763 75.1081 75.5763 73.5222V63.0477H80.3366ZM127.538 63.0477C127.791 63.0477 127.999 62.8399 127.999 62.5863V60.3544C127.999 60.1008 127.791 59.893 127.538 59.893H122.777V52.7428C122.777 52.4892 122.569 52.2813 122.315 52.2813H120.081C119.827 52.2813 119.62 52.4892 119.62 52.7428V59.893H117.224C116.971 59.893 116.763 60.1008 116.763 60.3544V62.5863C116.763 62.8399 116.971 63.0477 117.224 63.0477H119.62V73.8722C119.62 77.1603 121.83 79.3703 125.121 79.3703H127.538C127.792 79.3703 128 79.1625 128 78.9089V76.677C128 76.4234 127.792 76.2155 127.538 76.2155H125.4C123.856 76.2155 122.777 75.1081 122.777 73.5222V63.0477H127.538ZM47.7988 63.0477V78.9102C47.7988 79.1638 48.0068 79.3716 48.2605 79.3716H50.4936C50.7474 79.3716 50.9553 79.1638 50.9553 78.9102V63.0477H56.2081C56.4618 63.0477 56.6697 62.8399 56.6697 62.5863V60.3544C56.6697 60.1008 56.4618 59.893 56.2081 59.893H50.9553V55.6015C50.9553 53.9944 52.0831 52.7824 53.5782 52.7824H56.2081C56.4618 52.7824 56.6697 52.5746 56.6697 52.321V50.0884C56.6697 49.8348 56.4618 49.627 56.2081 49.627H53.7752C50.4799 49.627 47.7988 52.3073 47.7988 55.6008V59.8923H45.4029C45.1492 59.8923 44.9413 60.1001 44.9413 60.3537V62.5856C44.9413 62.8392 45.1492 63.0471 45.4029 63.0471H47.7988V63.0477ZM102.056 62.1509C100.305 60.2628 97.8465 59.2224 95.1326 59.2224C92.6929 59.2224 90.1404 60.3045 88.6672 61.8809V50.0891C88.6672 49.8355 88.4592 49.6277 88.2055 49.6277H85.9683C85.7145 49.6277 85.5066 49.8355 85.5066 50.0891V69.6381C85.5066 76.8677 90.3415 80.1037 95.1326 80.1037C99.9237 80.1037 104.759 76.8677 104.759 69.6381C104.759 66.6475 103.824 64.0587 102.056 62.1509ZM95.1326 76.9449C90.3654 76.9449 88.6665 73.1702 88.6665 69.6374C88.6665 65.2974 91.2648 62.3812 95.1326 62.3812C98.9997 62.3812 101.599 65.2974 101.599 69.6374C101.599 73.1702 99.8997 76.9449 95.1326 76.9449Z" fill="black"/>
</svg>
