<svg width="200" height="128" viewBox="0 0 200 128" fill="none" xmlns="http://www.w3.org/2000/svg">
<path d="M86.6755 66.0536C86.6453 64.6991 85.5126 63.7402 84.2639 63.7402C81.5046 63.7402 81.0696 66.2392 81.0696 68.4568C81.0696 70.5231 81.9107 72.6487 84.0025 72.6487C85.7163 72.6487 86.5877 71.6022 86.8216 69.9063H91.6131C91.1775 74.1902 88.0414 76.655 84.0314 76.655C79.4999 76.655 76.1292 73.3582 76.1292 68.4568C76.1292 63.3721 79.1808 59.7339 84.0314 59.7339C87.78 59.7339 91.1198 61.8313 91.4656 66.0536H86.6755V66.0536ZM127.097 60.1904H131.831V62.4147H131.891C132.779 60.7604 134.265 59.7346 136.378 59.7346C141.344 59.7346 141.936 63.5584 141.936 65.8369V75.95H137.057V68.327C137.057 66.1709 137.148 63.9829 134.616 63.9829C132.913 63.9829 131.975 65.4666 131.975 67.7666V75.95H127.097V60.1904V60.1904ZM149.985 73.4191C152.257 73.4191 153.015 72.0023 152.904 68.7032C152.231 69.1686 150.997 69.2584 149.958 69.5657C148.893 69.8425 147.994 70.3375 147.994 71.6015C147.994 72.8944 148.92 73.4191 149.985 73.4191ZM143.815 65.1289C143.897 63.0337 144.797 61.6762 146.085 60.8472C147.376 60.0441 149.059 59.7346 150.714 59.7346C154.163 59.7346 157.503 60.5681 157.503 65.0962V72.0943C157.503 73.4503 157.503 74.9302 158.064 76.1949H153.266C153.098 75.6998 153.044 75.207 152.986 74.6838C151.754 76.1006 149.929 76.655 148.189 76.655C145.413 76.655 143.226 75.1157 143.226 71.8152C143.226 66.608 148.386 67.0066 151.696 66.2681C152.509 66.0833 152.958 65.7768 152.958 64.7889C152.958 63.5851 151.642 63.1272 150.658 63.1272C149.341 63.1272 148.501 63.7736 148.276 65.1289H143.815V65.1289ZM159.355 75.95H163.872V56.2085H159.355V75.95ZM170.69 67.843C170.69 70.077 171.435 72.5626 173.677 72.5626C176.062 72.5626 176.579 70.077 176.579 68.0004C176.579 65.6402 175.802 63.4671 173.677 63.4671C171.435 63.4679 170.69 65.7671 170.69 67.843ZM181.29 76.1845H176.634V74.2949H176.579C175.631 75.8371 174.195 76.6543 172.471 76.6543C167.79 76.6543 165.807 72.2487 165.807 67.6538C165.807 63.4055 167.873 59.3777 172.097 59.3777C173.935 59.3777 175.344 60.1339 176.348 61.6124H176.408V56.2085H181.291V76.1845H181.29ZM184.84 61.1441H182.581V56.2085H187.097L184.84 61.1441ZM100.3 71.3744H98.1054V60.7856H100.3C103.137 60.7856 104.409 62.84 104.409 65.9824C104.409 69.4417 103.383 71.3744 100.3 71.3744ZM100.742 56.2085H92.9036V75.9492H100.742C106.283 75.9492 109.677 72.4654 109.677 65.998C109.677 59.8861 106.332 56.2085 100.742 56.2085ZM66.9166 75.95L68.9069 68.0479C69.1326 67.1254 69.3556 66.0447 69.4414 65.4992H69.4983C69.547 65.9186 69.7 67.1016 69.8839 68.1102L71.2965 75.95H76.7748L72.9376 56.2093H67.13L64.8042 66.1249C64.608 66.893 64.3672 68.1362 64.2231 68.7864H64.1675H64.2231H64.1675C64.0207 68.1362 63.7813 66.8923 63.5871 66.1249L61.2593 56.2093H55.4517L51.6131 75.95H57.0935L58.5068 68.1102C58.69 67.1016 58.8409 65.9186 58.8917 65.4992H58.9465C59.0337 66.0447 59.2566 67.1261 59.481 68.0479L61.472 75.95H66.9166ZM118.066 72.6561C115.98 72.6561 115.145 70.7524 115.145 68.1934C115.145 65.6373 115.98 63.7328 118.066 63.7328C120.149 63.7328 120.985 65.6365 120.985 68.1934C120.985 70.7524 120.149 72.6561 118.066 72.6561ZM118.066 59.7339C113.314 59.7339 110.323 63.3959 110.323 68.1934C110.323 72.9931 113.314 76.6543 118.066 76.6543C122.817 76.6543 125.806 72.9923 125.806 68.1934C125.806 63.3959 122.817 59.7339 118.066 59.7339ZM189.964 70.9224C189.964 71.7225 190.286 72.308 190.784 72.7088C191.251 73.0792 191.857 73.2647 192.558 73.2647C193.524 73.2647 194.898 72.8335 194.898 71.5688C194.898 70.3353 193.348 70.0896 192.471 69.8729C189.343 69.0402 185.293 68.9496 185.293 64.6338C185.293 60.7796 189.373 59.7339 192.355 59.7339C195.689 59.7339 199.167 60.75 199.343 64.9107H194.688C194.688 64.233 194.452 63.8026 194.044 63.5243C193.633 63.2482 193.144 63.1235 192.53 63.1235C191.712 63.1235 190.396 63.2155 190.396 64.3266C190.396 65.8369 193.86 66.1137 196.141 66.637C199.212 67.2842 200 69.6273 200 70.9521C200 75.2338 196.01 76.6543 192.589 76.6543C188.992 76.6543 185.307 75.3911 185.162 70.9216H189.964V70.9224ZM198.19 57.1964H198.373C198.526 57.1964 198.669 57.1889 198.669 56.9923C198.669 56.8282 198.541 56.803 198.42 56.803H198.19V57.1964ZM198.015 56.6479H198.452C198.717 56.6479 198.845 56.7652 198.845 57.0027C198.845 57.2246 198.715 57.3181 198.549 57.3381L198.87 57.8836H198.683L198.377 57.353H198.192V57.8836H198.015V56.6479H198.015ZM198.39 58.1679C198.836 58.1679 199.18 57.7782 199.18 57.2609C199.18 56.7562 198.836 56.3651 198.39 56.3651C197.94 56.3651 197.595 56.7562 197.595 57.2609C197.595 57.7782 197.94 58.1679 198.39 58.1679ZM198.39 56.2085C198.915 56.2085 199.354 56.6664 199.354 57.2609C199.354 57.868 198.914 58.3238 198.39 58.3238C197.863 58.3238 197.419 57.868 197.419 57.2609C197.419 56.6672 197.863 56.2085 198.39 56.2085ZM28.2847 47.7142C31.68 47.7142 34.4332 63.5124 34.4332 83H39.3517C39.3517 62.0132 34.3962 45 28.2847 45C24.807 45 21.7059 50.1129 19.6765 58.1085C17.6478 50.1129 14.5447 45 11.0684 45C4.95618 45 0 62.0132 0 83H4.91982C4.91982 63.5124 7.67302 47.7142 11.0677 47.7142C14.4638 47.7142 17.217 62.2974 17.217 80.2858H22.1347C22.1354 62.2974 24.8886 47.7142 28.2847 47.7142ZM41.672 81.4963H41.9162C42.1213 81.4963 42.3093 81.4852 42.3093 81.2239C42.3093 81.005 42.1385 80.9716 41.98 80.9716H41.672V81.4963ZM41.438 80.7645H42.0184C42.3752 80.7645 42.5426 80.9189 42.5426 81.2351C42.5426 81.5342 42.3711 81.6581 42.1495 81.6841L42.5769 82.4122H42.3265L41.9189 81.7034H41.6713V82.4122H41.438V80.7645ZM41.9395 82.7929C42.5316 82.7929 42.992 82.2727 42.992 81.5832C42.992 80.907 42.5316 80.3868 41.9395 80.3868C41.3385 80.3868 40.8802 80.907 40.8802 81.5832C40.8802 82.2727 41.3385 82.7929 41.9395 82.7929ZM41.9395 80.1797C42.6393 80.1797 43.2259 80.7861 43.2259 81.5832C43.2259 82.3921 42.6393 82.9993 41.9395 82.9993C41.2363 82.9993 40.6449 82.3921 40.6449 81.5832C40.6449 80.7868 41.2363 80.1797 41.9395 80.1797Z" fill="black"/>
</svg>
