<svg width="128" height="128" viewBox="0 0 128 128" fill="none" xmlns="http://www.w3.org/2000/svg">
<path d="M16 64.0019C16 37.4931 37.567 16.0037 64.1699 16C90.7747 16.0525 111.953 37.4931 112 64.0019C111.953 90.5106 90.7747 111.953 64.1699 112C37.567 112 16 90.5106 16 64.0019ZM16.415 64.0019C16.4619 90.2781 37.7961 111.537 64.1681 111.584C90.5457 111.584 111.583 90.28 111.583 64.0019C111.583 37.72 90.5457 16.4181 64.1681 16.4181C37.7961 16.4669 16.4638 37.72 16.415 64.0019ZM19.1827 64C19.1827 39.2819 39.2475 19.2494 64.0009 19.2456C88.7487 19.2494 108.815 39.2837 108.815 64C108.815 88.7181 88.7487 108.754 64.0009 108.754C39.2475 108.756 19.1827 88.72 19.1827 64ZM22.11 64C22.1513 87.1019 40.8623 105.786 63.9991 105.829C87.132 105.786 105.841 87.1019 105.884 64C105.841 40.9 87.1302 22.2137 63.9991 22.1706C40.8623 22.2156 22.1513 40.9 22.11 64ZM74.2249 74.2806H75.6745V80.5694C75.6745 82.5794 77.0076 83.2394 78.1549 83.185C79.7246 83.11 80.8268 81.5312 80.8268 81.5312L80.7198 80.9144C80.2579 81.3756 79.5481 82.0975 78.9454 82.0975C77.7775 82.0769 77.3437 81.2162 77.385 79.7312V74.2806H80.4043V73.3056H77.385V70.6675H76.9025C76.5194 72.1112 75.3534 72.9831 74.2268 73.7969L74.2249 74.2806ZM73.4982 73.4931C72.6965 72.7806 71.8008 72.5837 70.77 72.5837C69.1871 72.5837 67.715 73.6713 67.715 75.5144C67.715 79.345 72.7303 77.6669 72.7303 80.3669C72.7303 81.6231 71.9266 82.5194 70.6855 82.4931C69.1608 82.4631 68.2144 81.205 68.1769 79.5962H67.4315L67.7 82.4837C68.5768 82.9656 69.5701 83.1006 70.5428 83.1006C72.3923 83.1006 74.2211 82.0881 74.2211 79.8662C74.2211 76.1819 68.9993 77.2937 68.9993 74.9912C68.9993 73.8381 69.8386 73.1162 70.8113 73.1162C72.1444 73.1162 72.7941 74.1531 72.7941 75.4919H73.4626L73.4982 73.4931ZM59.2316 82.4144C59.8776 82.8119 60.7075 83.1231 61.4567 83.1231C65.1388 83.1231 66.7292 80.4906 66.7292 77.6219C66.7292 74.3781 65.2778 72.6794 62.7898 72.6794C62.4669 72.6794 62.1627 72.7431 61.8397 72.7844L60.2024 73.8325L60.4052 73.9994C60.8295 73.8512 61.2952 73.7688 61.7402 73.7688C64.1474 73.7688 65.212 76.0075 65.212 78.2463C65.212 80.5694 64.1887 82.57 62.0632 82.57C60.6681 82.57 59.8269 81.595 59.8269 80.2131V66.6287L59.4344 66.4806C58.6045 66.8594 57.5624 67.1913 56.5916 67.3169L56.6048 67.6619C57.1906 67.6619 57.6469 67.7669 58.1933 68.0388L58.1801 78.9119C58.1801 80.2731 58.2083 81.5913 58.1069 83.0144L58.4712 83.1812L59.2316 82.4144ZM37.7754 68.3444V68.8862L39.2118 69.1806L39.5085 69.6887C39.3114 70.4612 36.1268 79.4781 36.1268 79.4781L32.8728 69.3494L34.5608 68.8844L34.604 68.3425L29.0574 68.3313L29.048 68.8375L30.9257 69.265L35.3645 83.1906H35.9973L40.0117 72.0513L43.7746 83.1494L44.4506 83.1569L49.2743 69.2669L50.9999 68.7906V68.2975H46.0804V68.7906L47.99 69.2669L44.4355 79.4312C44.4355 79.4312 41.3918 70.2925 41.1966 69.5613L41.45 69.1394L43.0986 68.8787V68.3369L37.7754 68.3444ZM85.3482 55.4406C86.0524 54.9025 86.8617 54.2444 87.7348 54.2444C89.665 54.2444 89.6162 56.2975 89.6162 57.9306V62.0425L88.039 62.4287V62.8562H92.7688V62.4287L91.1916 62.0425V55.4406C91.8957 54.9025 92.8214 54.37 93.6945 54.37C95.6229 54.37 95.4595 56.2975 95.4595 57.9306V62.0425L93.8823 62.4287V62.8562H98.5408V62.4287L97.0368 62.0425V56.3369C97.0368 54.3644 96.0604 53.2731 93.9612 53.2094C93.7208 53.2019 93.3134 53.29 92.7181 53.7475L91.201 55.045C90.6809 54.0288 89.6707 53.23 88.484 53.23C87.7047 53.23 87.4456 53.3294 86.8316 53.8075L85.3482 54.7638V53.3481L84.922 53.2094C84.1597 53.5675 83.0481 53.8862 82.1581 54.0062L82.1487 54.3494C82.6857 54.3494 83.2603 54.4488 83.7616 54.7075L83.771 62.0425L82.1938 62.3819V62.8581H86.9236V62.4306L85.3464 62.0444L85.3482 55.4406ZM81.7901 62.3425L81.5215 61.9244L80.1264 61.7969L80.0908 55.66C80.0908 53.9069 79.3453 53.1381 78.1323 53.1381C77.9051 53.1381 77.6592 53.1175 77.4507 53.2375L75.2144 54.5725C74.9872 54.7113 74.1911 55.1706 74.1723 55.5081L74.0953 56.6162L74.2286 56.6969L75.3646 56.4587C75.5355 56.4194 75.7045 56.4381 75.6876 56.2C75.6313 55.1631 75.5618 54.2875 77.2986 54.0494C78.1436 53.9331 78.6262 54.7263 78.6262 56.26V57.7619C77.6592 58.06 76.5983 58.4781 75.4604 58.8569C74.6079 59.1363 73.3217 59.5263 73.3217 61.18C73.3217 61.9563 74.2418 63.0119 75.436 62.9819C76.6678 62.95 77.6592 62.4756 78.6055 61.7181L78.5492 63.0419C78.5511 63.0381 80.8249 62.5206 81.7901 62.3425ZM76.4856 62.0331C75.727 62.0331 74.929 61.5006 74.929 60.7844C74.929 59.3894 76.4086 59.0125 78.628 58.2494V61.1556C78.0197 61.5363 77.0714 62.0331 76.4856 62.0331ZM71.4234 49.8231C71.4234 49.3187 71.0479 48.8688 70.5522 48.8688C70.0733 48.8688 69.7147 49.3544 69.7147 49.8231C69.7147 50.2731 70.124 50.6687 70.5522 50.6687C70.9972 50.6669 71.4234 50.3069 71.4234 49.8231ZM73.2504 62.9294V62.4775L71.4666 62.1381V53.35L71.1061 53.2113C70.3287 53.5694 69.1908 53.8881 68.282 54.0081V54.46C68.8322 54.46 69.418 54.5594 69.9306 54.8181V62.14L68.0736 62.4794V62.9313H73.2504V62.9294ZM56.6968 53.2113C55.9044 53.5694 54.7421 53.8881 53.8145 54.0081V54.46C54.3741 54.46 54.9749 54.5594 55.4988 54.8181V62.0669L53.7188 62.4062V62.9313H58.8336V62.4062L57.0948 62.0669V57.1338C57.0948 56.7756 58.0036 54.4956 59.1246 54.4956C59.3762 54.4956 59.7161 54.6738 59.9283 54.8331L60.4352 54.8762L60.7732 53.5675C60.4653 53.3294 59.6579 53.2712 59.2523 53.2712C58.2271 53.2712 57.9173 54.4638 57.4929 55.2794L57.1455 55.8363V53.35L56.6968 53.2113ZM45.703 49.5175L45.6786 49.0281H41.5383L37.3586 59.2469L33.0831 49.0281H28.8677L28.8433 49.5175L30.8937 49.8569L29.7577 62.0613L28.1129 62.4006V62.9313H32.6775V62.4006L30.8787 62.0613L31.8645 51.0006L31.9997 50.6162L36.9586 62.56H37.1896L41.9645 50.7625L42.141 51.0813L43.0892 62.0631L41.0952 62.4025V62.9331H46.6869V62.4025L45.0082 62.0631L43.7483 49.8588L45.703 49.5175ZM50.9811 62.0275C50.9267 62.0275 50.8741 62.0238 50.8196 62.0238C47.7196 61.84 47.2727 59.4606 47.3234 56.815H52.7048C53.2907 56.8 53.424 56.8075 53.4371 56.0575C53.4371 54.4131 52.0307 53.2525 50.0329 53.2525C47.6745 53.2525 45.78 55 45.7762 58.15C45.78 61.3581 47.6539 63.1019 50.0329 63.1056C51.0112 63.1056 51.7134 62.9613 51.8204 62.8994L53.2663 61.4613L54.0793 60.6156L53.5761 60.5575C52.8513 61.3412 52.0946 62.0275 50.9811 62.0275ZM49.7419 53.7362C51.3078 53.7362 51.9481 54.9306 51.8711 56.4062H47.3628C47.4586 55.09 48.3298 53.7362 49.7419 53.7362ZM54.1131 60.58L53.9065 60.5631L54.0924 60.6006L54.1131 60.58ZM47.3628 56.8544H47.5262H47.3628ZM50.8253 61.9806C52.0045 62.05 52.7931 61.3469 53.546 60.5312L53.9084 60.5613L53.5479 60.4881C52.795 61.2813 52.0552 61.9431 50.9811 61.9431C50.9304 61.9431 50.8741 61.9431 50.8272 61.9394C47.7872 61.7556 47.3722 59.47 47.3647 56.8544H47.3253C47.3234 59.4644 47.7553 61.7969 50.8253 61.9806ZM54.0943 60.6006L54.0774 60.6175L54.1093 60.6212L53.2644 61.4631L51.8505 62.9313C51.7153 63.0119 51.0168 63.1506 50.031 63.1506C47.6332 63.1506 45.7349 61.3787 45.7349 58.1519C45.7349 54.985 47.6501 53.2131 50.031 53.2131C52.0439 53.2131 53.4803 54.3888 53.4803 56.0613C53.4803 56.8188 53.2869 56.8581 52.7067 56.8581H47.5281L52.7048 56.9012C53.2813 56.8975 53.5216 56.8244 53.5216 56.0613C53.5179 54.3606 52.0589 53.1756 50.0329 53.1719C47.6295 53.1756 45.6973 54.9719 45.6936 58.1538C45.6973 61.3956 47.6107 63.1863 50.0329 63.1956C51.0262 63.1919 51.7172 63.0606 51.8711 62.9725L54.1431 60.6138L54.0943 60.6006ZM92.2525 72.5631C91.4188 72.9419 90.1983 73.2756 89.2219 73.3994V73.8738C89.8115 73.8738 90.4424 73.9787 90.9926 74.2525V81.8706L89.1205 82.2269V82.7781H94.4982V82.2269L92.6693 81.8706V76.6863C92.6693 76.3094 93.6232 73.915 94.8042 73.915C95.069 73.915 95.4239 74.1025 95.6473 74.2694L96.1806 74.3144L96.5355 72.9419C96.2106 72.6888 95.3638 72.6287 94.9375 72.6287C93.8598 72.6287 93.5349 73.8813 93.088 74.7419L92.7238 75.3288V72.7112L92.2525 72.5631ZM89.0773 82.7781L89.1111 82.1856L90.9475 81.8706L90.97 74.2919C90.4292 74.0256 89.8059 73.9169 89.1806 73.8775L89.2163 73.36C90.187 73.2344 91.4038 72.9006 92.2356 72.5256L92.2525 72.565L92.2637 72.5219L92.7594 72.7075L92.6825 75.3044L93.0467 74.7194C93.4917 73.8756 93.8147 72.5931 94.9357 72.5875C95.3675 72.5912 96.2125 72.6437 96.5749 72.9512L96.1749 74.3575L95.621 74.305C95.4051 74.14 95.0465 73.9563 94.8042 73.9563C93.6776 73.9619 92.7125 76.3356 92.7087 76.6881L92.6749 81.8313L94.5395 82.2288L94.4944 82.825L89.0773 82.7781ZM89.2651 73.4013L89.2219 73.8306C89.8152 73.8306 90.4537 73.9375 91.0339 74.2525L91.0019 81.91L89.1637 82.225L89.1224 82.7369L94.4569 82.7781L94.4888 82.2663L92.628 81.8687V76.6863C92.6374 76.2831 93.5706 73.8944 94.8042 73.87C95.0878 73.8738 95.4408 74.065 95.6511 74.2263L96.1355 74.3031L96.5054 72.9719C96.205 72.7338 95.3544 72.67 94.9357 72.67C93.8973 72.6625 93.5725 73.8906 93.1218 74.7625L92.6749 75.3231L92.705 72.7469L92.2543 72.6044C91.4169 72.9813 90.2039 73.3169 89.2651 73.4013ZM49.9146 76.0281C50.0179 74.6406 50.9361 73.21 52.4288 73.21C54.083 73.21 54.7571 74.4719 54.6764 76.0281H49.9146ZM55.557 76.5025C56.171 76.5025 56.3757 76.4613 56.3757 75.6625C56.3757 73.8963 54.8585 72.655 52.733 72.655C50.2207 72.655 48.1984 74.5263 48.1984 77.8694C48.1984 81.2744 50.2019 83.1475 52.733 83.1475C53.7751 83.1475 54.5112 82.9994 54.6539 82.9169L57.0441 80.4344L56.4452 80.3838C55.6472 81.2481 54.8153 81.9887 53.5723 81.9156C50.3314 81.7225 49.8733 79.2587 49.8733 76.5025H55.557V76.5025ZM82.6819 75.9587C82.7833 74.5712 83.7034 73.1406 85.1962 73.1406C86.8504 73.1406 87.5245 74.4025 87.4437 75.9587H82.6819ZM88.3244 76.435C88.9365 76.435 89.143 76.3919 89.143 75.595C89.143 73.8269 87.6259 72.5875 85.5003 72.5875C82.988 72.5875 80.9657 74.4606 80.9657 77.8019C80.9657 81.2087 82.9692 83.0819 85.5003 83.0819C86.5425 83.0819 87.2785 82.9337 87.4212 82.8494L89.8115 80.3687L89.2106 80.3181C88.4145 81.1806 87.5827 81.9231 86.3397 81.8481C83.0988 81.655 82.6425 79.1931 82.6425 76.4369L88.3244 76.435ZM98.522 57.505H102.277V58.8831H98.522V57.505ZM63.8977 53.2113C63.1053 53.5694 61.943 53.8881 61.0154 54.0081V54.46C61.575 54.46 62.1758 54.5594 62.6997 54.8181V62.0669L60.9197 62.4062V62.9313H66.0345V62.4062L64.2957 62.0669V57.1338C64.2957 56.7756 65.2045 54.4956 66.3255 54.4956C66.5771 54.4956 66.917 54.6738 67.1291 54.8331L67.6361 54.8762L67.9741 53.5675C67.6662 53.3294 66.8588 53.2712 66.4532 53.2712C65.428 53.2712 65.1182 54.4638 64.6938 55.2794L64.3464 55.8363V53.35L63.8977 53.2113Z" fill="black"/>
</svg>
