<svg width="128" height="128" viewBox="0 0 128 128" fill="none" xmlns="http://www.w3.org/2000/svg">
<path d="M17.6009 79.7444C15.6752 80.0863 13.7148 80.1885 11.6882 80.4633L5.50609 62.1406V81.246C3.58038 81.4521 1.82486 81.7252 0 81.9984V47H5.13418L12.1626 66.8594V47.0016H17.5993V79.7444H17.6009ZM28.2412 59.8179C30.3371 59.8179 33.5455 59.7157 35.4712 59.7157V65.1837C33.0728 65.1837 30.2693 65.1837 28.2412 65.2875V73.4217C31.4181 73.2173 34.5919 72.9425 37.802 72.8403V78.1038L22.8359 79.3003V47H37.802V52.4696H28.2412V59.8179ZM57.9022 52.4696H52.2952V77.6262C50.4704 77.6262 48.6455 77.6262 46.89 77.6933V52.4696H41.2815V47.0016H57.9022V52.4696V52.4696ZM66.6861 59.4425H74.0832V64.9105H66.6861V77.3179H61.3817V47.0016H76.4817V52.4696H66.6861V59.4441V59.4425ZM85.2656 72.5335C88.3385 72.6006 91.4477 72.8403 94.4529 73.0128V78.4121C89.6229 78.1038 84.7928 77.7971 79.8603 77.6933V47.0016H85.2656V72.5335ZM99.015 78.7875C100.737 78.8898 102.561 78.9936 104.318 79.1981V47H99.0166V78.7859L99.015 78.7875ZM128 47.0016L121.142 63.6454L128 82C125.973 81.7252 123.945 81.3498 121.919 81.008L118.034 70.8914L114.082 80.1885C112.123 79.845 110.231 79.7428 108.272 79.4696L115.231 63.4393L108.948 47.0016H114.756L118.305 56.1949L122.087 47.0016H128V47.0016Z" fill="black"/>
</svg>
