<svg width="128" height="128" viewBox="0 0 128 128" fill="none" xmlns="http://www.w3.org/2000/svg">
<path d="M45.6007 75.9997C40.964 75.9997 36.6598 74.5187 33.7867 71.7725C31.6162 69.6977 30.5732 66.8794 30.5732 63.9787C30.5732 61.1133 31.6611 58.2755 33.7864 56.2117C36.4547 53.6218 41.1655 52 45.6007 52C50.5089 52 54.4374 53.3166 57.4404 56.2187C59.5771 58.2837 60.61 61.1088 60.61 63.9788C60.61 66.7608 59.5139 69.7233 57.4404 71.7725C54.644 74.5365 50.2493 75.9997 45.6007 75.9997V72.8342C48.0618 72.8342 50.3447 71.9293 51.939 70.2399C53.5223 68.5619 54.2599 66.4994 54.2599 63.9787C54.2599 61.5639 53.4643 59.3061 51.939 57.7047C50.366 56.0547 48.0286 55.1262 45.6007 55.1262C43.1653 55.1262 40.8264 56.0452 39.2521 57.7047C37.7352 59.3055 36.9374 61.5698 36.9374 63.9787C36.9374 66.38 37.7444 68.6429 39.2521 70.2402C40.8277 71.9094 43.1584 72.8345 45.6007 72.8345V76V75.9997ZM11.7107 52.0115C9.23043 52.0115 6.41263 52.5055 4.01838 53.6443C1.80866 54.6944 5.0384e-07 56.3925 5.0384e-07 59.2078C-0.00100791 61.7434 1.51204 63.2283 1.47098 63.1873C2.11464 63.8182 3.15071 64.8926 5.85945 65.5236C7.07012 65.8054 9.65828 66.2385 12.2358 66.5254C14.7943 66.8128 17.3121 67.086 18.3375 67.3625C19.1523 67.5834 20.521 67.8841 20.521 69.5194C20.521 71.1481 19.0791 71.6452 18.8285 71.753C18.5781 71.8584 16.8484 72.7036 13.7389 72.7036C11.4432 72.7036 8.68315 71.9684 7.67718 71.5852C6.51751 71.1457 5.30093 70.5642 4.16618 69.088C3.88397 68.7221 3.43883 67.7155 3.43883 66.7189H0.624639V75.1169H3.75259V73.9822C3.75259 73.853 3.90428 73.3218 4.42938 73.5744C5.08268 73.8906 7.00068 74.7038 9.00598 75.1497C10.6501 75.516 11.7104 75.7785 13.7546 75.7785C17.0897 75.7785 18.8815 75.1998 20.1201 74.8231C21.287 74.4673 22.7289 73.8285 23.9002 72.8337C24.5345 72.2958 25.9255 70.9171 25.9255 68.4143C25.9255 66.0121 24.715 64.5212 24.289 64.0677C23.7089 63.4495 23.0003 62.9706 22.2618 62.6013C21.6186 62.2788 20.6033 61.8914 19.7726 61.6749C18.1602 61.2533 14.5146 60.7332 12.7711 60.539C10.943 60.3356 7.77154 60.0559 6.50483 59.6384C6.12092 59.5117 5.33796 59.1145 5.33796 58.1466C5.33796 57.4582 5.69594 56.8746 6.40356 56.403C7.52679 55.6535 9.79557 55.1876 12.1604 55.1876C14.9565 55.1767 17.3241 55.8574 18.8304 56.5745C19.3426 56.8181 19.9419 57.1679 20.418 57.5819C20.9552 58.0482 21.7092 59.0176 21.9819 60.3695H24.5086V53.0594H21.6875V53.909C21.6875 54.1833 21.4214 54.5397 20.9183 54.2451C19.656 53.5397 16.0863 52.0178 11.7101 52.0115H11.7107ZM73.5344 53.34L87.2962 66.5664L87.1549 57.6613C87.1409 56.4935 86.9389 56.0061 85.753 56.0061H83.1654V53.3421H94.9322V56.0061H92.4081C91.1986 56.0061 91.1222 56.418 91.1075 57.6613L91.3209 74.6771H87.2913L71.4404 59.611L71.4438 70.3034C71.4576 71.4657 71.5088 72.0131 72.6333 72.0131H75.4593V74.6758H63.9033V72.0134H66.6047C67.6139 72.0134 67.5737 70.9889 67.5737 70.2429V57.7626C67.5737 56.957 67.4675 56.0079 65.8833 56.0079H63.6913V53.34H73.5344ZM108.378 72.0082C108.489 72.0082 108.979 71.9931 109.075 71.9622C109.346 71.8718 109.531 71.6654 109.616 71.4503C109.652 71.36 109.67 70.9603 109.67 70.8735L109.672 66.6637C109.672 66.5624 109.665 66.5185 109.504 66.293C109.326 66.0466 102.295 57.5611 101.973 57.1874C101.574 56.7235 100.872 56.0062 99.806 56.0062H97.3608V53.3413H111.16V56.003H109.496C109.112 56.003 108.856 56.3918 109.185 56.8237C109.185 56.8237 113.827 62.7381 113.871 62.8C113.914 62.8629 113.951 62.8779 114.011 62.8205C114.069 62.7616 118.77 56.8778 118.807 56.8313C119.03 56.5461 118.879 56.0061 118.397 56.0061H116.69V53.3413H128V56.0061H125.473C124.557 56.0061 124.184 56.1867 123.494 57.017C123.178 57.3968 116.072 66.0348 115.879 66.2689C115.778 66.3912 115.787 66.5618 115.787 66.6631V70.8724C115.787 70.9579 115.805 71.358 115.841 71.4479C115.926 71.6641 116.111 71.8704 116.383 71.9597C116.478 71.9908 116.962 72.0062 117.072 72.0062H119.658V74.6708H105.929V72.006L108.378 72.0082H108.378Z" fill="black"/>
</svg>
