<svg width="128" height="128" viewBox="0 0 128 128" fill="none" xmlns="http://www.w3.org/2000/svg">
<path d="M19.1952 44C8.59421 44 0 52.7304 0 63.4996C0 74.2701 8.59421 83 19.1952 83C29.7967 83 38.3904 74.2701 38.3904 63.4996C38.3904 52.7311 29.7971 44.0009 19.195 44.0009L19.1952 44ZM27.998 72.1241C27.6533 72.6986 26.9166 72.8785 26.3529 72.5286C21.8454 69.7299 16.1718 69.0977 9.4902 70.6483C8.84634 70.7982 8.20453 70.3882 8.05785 69.7343C7.91046 69.0802 8.31226 68.4282 8.95774 68.2792C16.2697 66.581 22.5417 67.3119 27.6012 70.4527C28.1651 70.8043 28.3439 71.5518 27.9978 72.1246L27.998 72.1241ZM30.3475 66.8153C29.9133 67.5308 28.9923 67.7553 28.2889 67.3159C23.1304 64.0946 15.2644 63.1615 9.16152 65.0435C8.37003 65.2863 7.53408 64.8332 7.29386 64.0306C7.05548 63.2265 7.50177 62.3789 8.29187 62.1344C15.263 59.9857 23.9292 61.0265 29.8544 64.7254C30.5581 65.1655 30.7804 66.1016 30.3472 66.8155L30.3475 66.8153ZM30.5492 61.2864C24.3617 57.5535 14.1556 57.2103 8.24899 59.0314C7.3005 59.3236 6.29746 58.7797 6.01002 57.8161C5.72258 56.8521 6.25757 55.8339 7.20675 55.5409C13.9872 53.4499 25.2589 53.8539 32.3815 58.1494C33.2346 58.6637 33.5145 59.7831 33.0089 60.6486C32.5046 61.5153 31.3998 61.801 30.5494 61.2864H30.5492ZM52.2238 62.0017C48.9096 61.1988 48.3196 60.6353 48.3196 59.4512C48.3196 58.3326 49.3563 57.5798 50.898 57.5798C52.3925 57.5798 53.8744 58.1515 55.428 59.3283C55.475 59.3639 55.5339 59.3781 55.5919 59.3688C55.6499 59.36 55.7012 59.3276 55.7352 59.2789L57.3534 56.9616C57.4199 56.8661 57.4018 56.7346 57.3122 56.6617C55.4631 55.1544 53.3809 54.4216 50.9471 54.4216C47.3686 54.4216 44.869 56.6032 44.869 59.7246C44.869 63.0719 47.0252 64.2571 50.7513 65.172C53.9228 65.9141 54.458 66.5358 54.458 67.6473C54.458 68.8788 53.3756 69.6444 51.6338 69.6444C49.6993 69.6444 48.1213 68.9824 46.3561 67.4295C46.3124 67.3911 46.2523 67.3737 46.1968 67.3769C46.1384 67.3818 46.085 67.4093 46.0478 67.4547L44.2334 69.6484C44.1573 69.7394 44.1669 69.8754 44.2549 69.9541C46.3087 71.8167 48.8346 72.8006 51.5605 72.8006C55.4166 72.8006 57.9084 70.6602 57.9084 67.3473C57.9153 64.5508 56.2672 63.0023 52.2307 62.0047L52.2238 62.0017ZM66.6323 58.6812C64.9609 58.6812 63.5899 59.35 62.4594 60.7203V59.1779C62.4594 59.0561 62.3623 58.9569 62.2426 58.9569H59.2749C59.1551 58.9569 59.0581 59.0561 59.0581 59.1779V76.3164C59.0581 76.4382 59.1551 76.5374 59.2749 76.5374H62.2426C62.3623 76.5374 62.4594 76.4382 62.4594 76.3164V70.9065C63.5902 72.1956 64.9613 72.8255 66.6323 72.8255C69.7379 72.8255 72.8819 70.3968 72.8819 65.7541C72.8865 61.1103 69.7416 58.681 66.6358 58.681L66.6323 58.6812ZM69.431 65.7541C69.431 68.1183 67.9975 69.7681 65.9449 69.7681C63.9157 69.7681 62.385 68.0433 62.385 65.7541C62.385 63.4652 63.9157 61.7402 65.9449 61.7402C67.9643 61.74 69.4313 63.4277 69.4313 65.7539L69.431 65.7541ZM80.94 58.6812C76.9404 58.6812 73.807 61.8098 73.807 65.8047C73.807 69.756 76.9188 72.8518 80.8909 72.8518C84.9047 72.8518 88.0477 69.7336 88.0477 65.7541C88.0477 61.7884 84.9258 58.6817 80.9397 58.6817L80.94 58.6812ZM80.94 69.7916C78.8126 69.7916 77.2088 68.0552 77.2088 65.753C77.2088 63.441 78.7571 61.7632 80.8909 61.7632C83.032 61.7632 84.6466 63.4996 84.6466 65.8035C84.6466 68.115 83.0879 69.7916 80.9402 69.7916H80.94ZM96.5885 58.9569H93.3229V55.5652C93.3229 55.4436 93.2261 55.3444 93.1063 55.3444H90.1391C90.019 55.3444 89.9215 55.4436 89.9215 55.5652V58.9569H88.4947C88.3753 58.9569 88.2785 59.0561 88.2785 59.1779V61.7688C88.2785 61.8904 88.3753 61.9898 88.4947 61.9898H89.9215V68.6939C89.9215 71.4032 91.2489 72.7768 93.8668 72.7768C94.9313 72.7768 95.8144 72.5535 96.6467 72.074C96.7143 72.0356 96.7563 71.9616 96.7563 71.8829V69.4155C96.7563 69.3394 96.7173 69.2674 96.6531 69.2276C96.5885 69.1864 96.5081 69.1843 96.4418 69.2176C95.8701 69.5099 95.3175 69.6447 94.6998 69.6447C93.7476 69.6447 93.3229 69.2055 93.3229 68.2212V61.991H96.5885C96.7084 61.991 96.8049 61.8918 96.8049 61.77V59.1793C96.8095 59.0575 96.7132 58.9583 96.5917 58.9583L96.5885 58.9569ZM107.967 58.9702V58.5536C107.967 57.3281 108.429 56.7816 109.467 56.7816C110.085 56.7816 110.582 56.9064 111.139 57.095C111.207 57.1169 111.279 57.1059 111.335 57.0643C111.392 57.0226 111.424 56.9557 111.424 56.885V54.3445C111.424 54.2474 111.363 54.1615 111.271 54.1328C110.683 53.9552 109.93 53.7729 108.804 53.7729C106.063 53.7729 104.614 55.3409 104.614 58.3058V58.9438H103.189C103.069 58.9438 102.971 59.043 102.971 59.1646V61.7688C102.971 61.8904 103.069 61.9898 103.189 61.9898H104.614V72.3306C104.614 72.4524 104.711 72.5516 104.831 72.5516H107.798C107.918 72.5516 108.016 72.4524 108.016 72.3306V61.9905H110.787L115.031 72.3288C114.549 73.415 114.075 73.6311 113.429 73.6311C112.906 73.6311 112.355 73.4725 111.792 73.1596C111.739 73.13 111.676 73.1251 111.619 73.1431C111.563 73.1633 111.515 73.2062 111.491 73.262L110.485 75.5037C110.437 75.6097 110.478 75.734 110.579 75.789C111.629 76.3667 112.577 76.6133 113.748 76.6133C115.939 76.6133 117.151 75.5764 118.218 72.7868L123.367 59.2719C123.393 59.204 123.385 59.1271 123.344 59.0668C123.303 59.007 123.237 58.9709 123.165 58.9709H120.076C119.983 58.9709 119.9 59.0307 119.87 59.119L116.705 68.3023L113.239 59.1129C113.207 59.0274 113.126 58.9709 113.036 58.9709H107.966L107.967 58.9702ZM101.37 58.9569H98.4023C98.2824 58.9569 98.1848 59.0561 98.1848 59.1779V72.3306C98.1848 72.4524 98.2824 72.5516 98.4023 72.5516H101.37C101.49 72.5516 101.587 72.4524 101.587 72.3306V59.1788C101.588 59.1201 101.565 59.0638 101.524 59.0223C101.483 58.9808 101.427 58.9576 101.37 58.9578L101.37 58.9569ZM99.903 52.9681C98.7273 52.9681 97.7733 53.9349 97.7733 55.1293C97.7733 56.3243 98.7276 57.2922 99.903 57.2922C101.078 57.2922 102.031 56.3243 102.031 55.1293C102.031 53.9352 101.078 52.9681 99.9041 52.9681H99.903ZM125.901 63.1858C124.726 63.1858 123.812 62.2276 123.812 61.064C123.812 59.9004 124.738 58.9313 125.912 58.9313C127.086 58.9313 128 59.8892 128 61.0519C128 62.2155 127.074 63.1858 125.9 63.1858H125.901ZM125.912 59.1423C124.842 59.1423 124.033 60.0061 124.033 61.064C124.033 62.1214 124.837 62.9736 125.901 62.9736C126.971 62.9736 127.781 62.1105 127.781 61.0519C127.781 59.9945 126.977 59.1423 125.913 59.1423H125.912ZM126.375 61.2701L126.966 62.1102H126.468L125.936 61.3395H125.479V62.1102H125.062V59.8832H126.039C126.549 59.8832 126.884 60.1479 126.884 60.5936C126.886 60.9588 126.677 61.1818 126.377 61.2701H126.375V61.2701ZM126.022 60.2653H125.478V60.9697H126.022C126.293 60.9697 126.456 60.8349 126.456 60.6172C126.456 60.388 126.293 60.2653 126.022 60.2653H126.022V60.2653Z" fill="black"/>
</svg>
