<svg width="200" height="128" viewBox="0 0 200 128" fill="none" xmlns="http://www.w3.org/2000/svg">
<g clip-path="url(#clip0_218_222)">
<path d="M0 53.0629C0.251907 54.1238 0.764955 55.0922 1.48526 55.8664C2.20556 56.6406 3.10654 57.1921 4.09357 57.4629H10.5263L10.8187 57.5257V74.8743H14.7953V57.5886L15.2047 57.4H21.6374C22.6217 57.1232 23.5197 56.5697 24.2391 55.7964C24.9585 55.0231 25.4734 54.058 25.731 53H0V53.0629ZM139.532 53.0629H135.556V74.9371H153.801C154.666 74.5859 155.437 74.0128 156.049 73.2679C156.66 72.5229 157.093 71.6287 157.31 70.6629H139.591V53L139.532 53.0629ZM108.947 57.3371C111.053 56.7086 112.807 54.9486 113.275 53L90.9942 53.0629V66.0114H109.181V70.5371H94.9123C93.8228 70.8418 92.806 71.3915 91.9289 72.15C91.0519 72.9085 90.3346 73.8585 89.8246 74.9371H113.158V61.7371H94.9123V57.3371H108.947V57.3371ZM176.901 74.9371H180.819V66.1371H195.205V74.9371H199.123V61.7371H176.901V74.9371ZM49.883 57.4H65.0877C66.0883 57.1456 67.0047 56.6007 67.7369 55.8248C68.469 55.0489 68.9889 54.0718 69.2398 53H45.7895C46.0356 54.0639 46.5467 55.0357 47.2679 55.8109C47.9891 56.5861 48.8932 57.1355 49.883 57.4V57.4ZM49.883 66.0743H65.0877C66.0883 65.8199 67.0047 65.275 67.7369 64.4991C68.469 63.7232 68.9889 62.7461 69.2398 61.6743H45.7895C46.0356 62.7382 46.5467 63.71 47.2679 64.4852C47.9891 65.2604 48.8932 65.8098 49.883 66.0743V66.0743ZM49.883 74.9371H65.0877C66.0883 74.6827 67.0047 74.1379 67.7369 73.362C68.469 72.586 68.9889 71.6089 69.2398 70.5371H45.7895C46.0356 71.6011 46.5467 72.5728 47.2679 73.348C47.9891 74.1232 48.8932 74.6726 49.883 74.9371V74.9371ZM180.409 57.4H195.614C196.604 57.1355 197.508 56.5861 198.229 55.8109C198.95 55.0357 199.462 54.0639 199.708 53L176.316 53C176.562 54.0639 177.073 55.0357 177.794 55.8109C178.515 56.5861 179.42 57.1355 180.409 57.4V57.4Z" fill="black"/>
</g>
<defs>
<clipPath id="clip0_218_222">
<rect width="200" height="22" fill="white" transform="translate(0 53)"/>
</clipPath>
</defs>
</svg>
