<svg width="200" height="128" viewBox="0 0 200 128" fill="none" xmlns="http://www.w3.org/2000/svg">
<path d="M12.8599 71.2949C14.721 71.6124 20.6623 70.2621 22.683 63.3071C24.747 56.1544 23.6938 57.5867 17.7128 63.6651C14.4793 66.9645 11.9329 71.137 12.8616 71.2949H12.8599ZM18.0762 75.8264C24.5415 73.5598 24.4621 65.2958 23.4124 67.5987C22.3611 69.8592 21.6731 71.6883 19.4107 72.9567C17.6316 73.9489 16.3791 74.0697 14.1961 74.0265C12.3756 73.9834 10.7191 72.5166 10.1917 74.7427C9.62724 77.2017 15.6921 76.6495 18.077 75.8125L18.0762 75.8264ZM12.6191 65.0974C17.5919 58.339 24.9877 55.9171 24.1383 55.0802C23.1293 54.0879 18.683 55.4391 18.683 55.4391C11.7697 57.823 4.25312 62.2743 3.76619 67.8394C3.60564 69.4666 4.08991 72.5287 6.19175 73.7997C7.64709 74.6737 10.1521 68.433 12.6191 65.0965V65.0974ZM7.76797 59.1354C10.5164 57.1475 15.8121 55.5177 14.6795 55.5582C10.8401 55.6773 3.03942 58.7765 2.67517 63.5478C2.55342 65.0577 5.01957 61.1216 7.76884 59.1345L7.76797 59.1354ZM0.976388 77.0964C0.532722 76.4631 2.31178 76.1042 2.63462 75.388C4.2522 72.3682 1.38211 73.6003 0.169335 66.6858C-2.17687 53.6134 20.582 53.6134 23.6153 53.0957C26.4025 52.6169 23.5712 49 25.756 49C26.4881 49 25.756 50.8688 26.4881 51.1467C27.2554 51.4659 27.7052 49.4383 28.4726 50.0768C29.531 50.9569 27.4671 51.7507 28.0316 52.3029C28.4373 52.6998 29.4075 51.9491 29.7339 52.4668C30.2984 53.3038 28.7637 53.8646 27.3877 54.0975C22.3778 54.9345 33.1297 76.4787 15.6656 79.4554C11.0615 80.2924 8.91811 76.3148 5.47822 78.2648C4.63149 78.748 4.02287 80.5771 3.50246 79.8178C3.18493 79.3433 4.03166 78.5927 3.50246 78.2734C3.1408 78.0749 2.62045 78.9516 2.25001 78.6332C1.96776 78.3553 2.37349 77.917 2.09125 77.5607C1.85134 77.2044 1.28506 77.5236 0.997556 77.1207L0.976388 77.0964ZM40.2644 78.4277C35.6073 78.4277 34.7491 74.9627 34.7491 71.5296V67.8238L32.2371 67.9144V63.458L34.7421 63.5167V57.7324L40.4399 57.1612V63.546L44.1444 63.4571V67.9091L40.4311 67.7884V71.4035C40.4311 73.0256 40.925 73.6296 42.1158 73.6296C42.7244 73.6296 43.5535 73.5088 43.9239 73.2327L45.1764 77.1153C44.5942 77.5036 43.6152 78.4095 40.2458 78.4095L40.2644 78.4277ZM52.8676 64.3976C52.8676 64.3976 55.1962 62.9498 58.8389 62.9498C61.5953 62.9498 62.9756 65.357 62.9756 68.0404V78.1007H57.2777V71.2932C57.2777 68.8221 57.2777 67.1345 55.2226 67.1345C54.1501 67.1345 52.8632 67.9197 52.8632 67.9197V78.1008H47.1389V54.6592L52.8685 54.2079V64.4149L52.8676 64.3976ZM76.849 68.6685C76.5315 67.219 75.2675 66.2872 73.7267 66.2872C70.9836 66.2872 70.0575 68.4873 70.3044 69.1085H76.752C76.9107 69.1085 76.8843 68.8065 76.8516 68.6685H76.849V68.6685ZM73.612 78.7807C68.0641 78.7807 65.0078 75.2604 65.0078 70.1698C65.0078 65.6228 68.6594 62.672 73.8016 62.672C78.3264 62.672 81.4929 65.5883 81.4929 70.2561V72.1888L70.247 72.1802C70.247 73.9231 72.2669 74.829 73.8016 74.829C75.3628 74.829 76.1566 74.3803 76.9858 73.7159L80.3462 76.011C79.6759 76.7012 77.6296 78.7806 73.6128 78.7806H73.612V78.7807ZM99.3954 70.7738C101.631 70.7738 103.686 68.8756 103.686 66.1923C103.686 64.018 101.63 62.1802 99.3954 62.1802C97.1286 62.1802 95.0752 64.018 95.0752 66.1836C95.0752 68.86 97.1268 70.7582 99.3971 70.7582L99.3954 70.7738ZM99.3954 78.841C92.4715 78.841 87.2323 73.5693 87.2323 66.1836C87.2323 59.2553 93.1771 54.3114 99.3954 54.3114C105.587 54.3114 111.558 59.2492 111.558 66.1767C111.558 73.5554 106.319 78.8272 99.3954 78.8272V78.841ZM129.058 64.622V55.1708L136.842 54.66V78.6374L121.772 68.4278V78.0368H113.962V53.9991L129.067 64.6314L129.058 64.622ZM140.095 78.0361H147.938V55.1716H140.095V78.0361ZM162.552 70.7764C164.789 70.7764 166.841 68.8782 166.841 66.1975C166.841 64.0293 164.789 62.1915 162.552 62.1915C160.285 62.1915 158.233 64.0293 158.233 66.1975C158.233 68.8782 160.284 70.7764 162.552 70.7764ZM162.552 78.8488C155.628 78.8488 150.389 73.577 150.389 66.1974C150.389 59.2691 156.334 54.3287 162.552 54.3287C168.742 54.3287 174.717 59.2639 174.717 66.1922C174.717 73.5692 169.477 78.841 162.552 78.841V78.8488ZM192.212 55.1734L200 54.6609V78.6383L184.926 68.4261V78.0361H177.111V53.9982L192.212 64.6314" fill="black"/>
</svg>
