<svg width="128" height="128" viewBox="0 0 128 128" fill="none" xmlns="http://www.w3.org/2000/svg">
<path d="M20.7788 50H25.7015V65.7821C25.7015 74.0855 20.4524 77 12.8371 77C5.24908 77 0 74.0855 0 65.7821V50.6324C0 50.1925 0.217579 50 0.652736 50H5.57545V65.5346C5.57545 70.5112 7.75124 72.5733 12.8371 72.5733C17.9502 72.5733 20.126 70.5112 20.126 65.5346V50.6324C20.126 50.1925 20.3436 50 20.7788 50ZM76.5061 54.3167V60.9705H88.9625C89.18 60.9705 89.2616 61.0804 89.18 61.3004L87.8202 64.7098C87.6842 65.0122 87.4938 65.1497 87.0858 65.1497H79.7698C77.3764 65.1497 76.5061 65.8921 76.5061 67.5143V72.2159H93.3684C93.586 72.2159 93.6676 72.3259 93.586 72.5458L92.1717 76.0927C92.0358 76.3951 91.8454 76.5326 91.4374 76.5326H72.9704C71.5562 76.5326 71.0122 76.0377 71.0122 74.9654V51.8422C71.0122 50.5499 71.7194 50 73.5688 50H93.3684C93.586 50 93.6676 50.11 93.586 50.3024L92.1717 53.8768C92.0358 54.1792 91.8454 54.3167 91.4374 54.3167H76.5061ZM60.8676 69.1914C60.8676 74.498 57.1688 76.5326 51.9741 76.5326H38.2122C36.7708 76.5326 36.254 76.0377 36.254 74.9654V51.8422C36.254 50.5499 36.934 50 38.8106 50H49.9887C54.8842 50 59.6165 50.8523 59.6165 56.7363C59.6165 59.2658 58.719 61.4104 56.5704 62.5377C59.535 63.335 60.8676 66.0295 60.8676 69.1914ZM41.6663 61.053H50.3966C53.2796 61.053 54.0955 59.9257 54.0955 57.6161C54.0955 55.3065 53.2796 54.2067 50.3966 54.2067H41.6663V61.053ZM55.3466 68.6965C55.3466 66.2495 54.5034 65.0397 51.403 65.0397H44.9572C42.5638 65.0397 41.6663 65.7821 41.6663 67.4043V72.3259H51.403C54.5034 72.3259 55.3466 71.1161 55.3466 68.6965ZM127.691 76.5326H122.687C122.279 76.5326 122.116 76.3676 121.953 76.0927L116.649 66.4145H111.781C109.388 66.4145 108.49 67.1568 108.49 68.779V76.5326H103.703C103.268 76.5326 103.051 76.3126 103.051 75.9002V51.8422C103.051 50.5499 103.758 50 105.607 50H116.84C123.394 50 127.338 51.7322 127.338 58.166C127.338 63.1426 124.972 65.0947 122.034 65.8646L127.936 76.0652C128.045 76.2301 128.045 76.5326 127.691 76.5326ZM121.817 58.276C121.817 55.5815 121.083 54.2617 117.656 54.2617H108.49V62.2902H117.656C121.083 62.2902 121.817 60.998 121.817 58.276Z" fill="black"/>
</svg>
