<svg width="128" height="128" viewBox="0 0 128 128" fill="none" xmlns="http://www.w3.org/2000/svg">
<path d="M0 55.5068C0 55.5068 3.18546 68.5929 3.69363 70.7172C4.2874 73.1968 5.3559 74.1101 8.43705 73.4932L10.427 65.3797C10.9298 63.3655 11.2695 61.9278 11.5931 59.8774H11.6493C11.8766 61.948 12.2016 63.3708 12.6161 65.3878C12.6161 65.3878 13.4252 69.0703 13.8398 71.0055C14.2557 72.9393 15.4124 74.157 18.4307 73.4945L23.1688 55.5082H19.3441L17.726 63.2837C17.2913 65.5487 16.8968 67.3162 16.5919 69.3882H16.5384C16.2616 67.3363 15.9099 65.6386 15.4686 63.4339L13.7836 55.5082H9.79842L7.99574 63.2327C7.48489 65.5809 7.00747 67.4772 6.7039 69.478H6.65041C6.29197 67.2921 5.90054 65.1117 5.47626 62.9377C5.47626 62.9377 4.40642 57.4125 4.0293 55.5082H0.00133721V55.5068H0ZM36.4709 55.5068V73.4932H40.1124V55.5055H36.4709V55.5068ZM87.7699 55.5068V68.7753C87.7699 70.6045 88.1136 71.8866 88.8478 72.6698C89.4897 73.3537 90.5461 73.7976 91.8126 73.7976C92.8904 73.7976 93.9496 73.5937 94.4484 73.4073L94.4016 70.5522C93.9494 70.6653 93.4848 70.7208 93.0188 70.7172C91.7778 70.7172 91.3606 69.9206 91.3606 68.2778V63.2019H94.534V59.7593H91.3619V55.5068H87.7699ZM28.3308 59.6749C26.0667 59.6749 24.2707 60.3119 23.2905 60.8805L24.0073 63.3413C24.9033 62.7741 26.3315 62.306 27.6822 62.306C29.9208 62.2993 30.2859 63.5747 30.2859 64.3914V64.5845C25.4101 64.5778 22.3303 66.2689 22.3303 69.7181C22.3303 71.8235 23.899 73.7962 26.6244 73.7962C28.3027 73.7962 29.7055 73.1257 30.5467 72.0502H30.6296C30.6296 72.0502 31.1873 74.385 34.255 73.4932C34.0946 72.5209 34.0411 71.4843 34.0411 70.2357V65.4307C34.0411 62.3691 32.7372 59.6749 28.3308 59.6749V59.6749ZM50.1195 59.6749C47.8394 59.6749 46.8163 60.8335 46.1945 61.8165H46.141V59.9793H42.664V73.4932H46.3255V65.5675C46.3255 65.196 46.3683 64.8031 46.498 64.4625C46.8016 63.6645 47.5411 62.7311 48.7233 62.7311C50.201 62.7311 50.8924 63.9837 50.8924 65.7914V73.4932H54.5499V65.4723C54.5499 65.1169 54.5981 64.6904 54.7024 64.3766C55.0033 63.4687 55.8017 62.7311 56.8996 62.7311C58.3974 62.7311 59.1168 63.9609 59.1168 66.0892V73.4918H62.777V65.5353C62.777 61.3378 60.6507 59.6762 58.2529 59.6762C57.1898 59.6762 56.3513 59.9444 55.593 60.4098C54.9565 60.8027 54.3855 61.3592 53.8866 62.0928H53.8332C53.2528 60.6364 51.8914 59.6762 50.1181 59.6762L50.1195 59.6749ZM70.2272 59.6749C67.9631 59.6749 66.1671 60.3119 65.1855 60.8805L65.905 63.3413C66.801 62.7741 68.2279 62.306 69.5786 62.306C71.8145 62.2993 72.1823 63.5747 72.1823 64.3914V64.5845C67.3065 64.5778 64.2267 66.2689 64.2267 69.7181C64.2267 71.8235 65.7953 73.7962 68.5221 73.7962C70.1991 73.7962 71.6032 73.1257 72.4431 72.0502H72.526C72.526 72.0502 73.0823 74.385 76.1514 73.4932C75.9909 72.5209 75.9374 71.4843 75.9374 70.2357V65.4307C75.9374 62.3691 74.6336 59.6749 70.2272 59.6749V59.6749ZM85.4323 59.6749C84.0308 59.6749 82.4367 60.5828 81.7654 62.5286H81.6638V59.9806H78.3673V73.4932H82.1251V66.5733C82.1251 66.2005 82.1479 65.8746 82.2054 65.5755C82.4849 64.1272 83.5895 63.2005 85.1769 63.2005C85.6128 63.2005 85.9244 63.2474 86.2601 63.2957V59.7593C85.9887 59.6999 85.7114 59.672 85.4336 59.6762L85.4323 59.6749ZM30.4036 66.981V68.6667C30.4036 68.9161 30.3822 69.1736 30.3127 69.3976C30.0318 70.335 29.0636 71.1262 27.8547 71.1262C26.8464 71.1262 26.0467 70.5522 26.0467 69.3386C26.0467 67.4812 28.0834 66.9689 30.4036 66.981V66.981ZM72.3 66.981V68.6667C72.3 68.9161 72.2772 69.1736 72.209 69.3976C71.9282 70.335 70.96 71.1262 69.7511 71.1262C68.7428 71.1262 67.9417 70.5522 67.9417 69.3386C67.9417 67.4812 69.9798 66.9689 72.3 66.981V66.981ZM114.227 49C113.052 49 112.117 49.6598 112.117 50.4618L112.831 58.5698C112.911 59.0593 113.506 59.4361 114.228 59.4361C114.951 59.4348 115.546 59.058 115.626 58.5698L116.344 50.4618C116.344 49.6598 115.408 49 114.228 49H114.227ZM102.591 55.5068C101.981 55.5216 101.287 55.9856 100.846 56.7527C100.256 57.7732 100.361 58.9145 101.051 59.3141L108.41 62.7513C108.87 62.9229 109.494 62.5957 109.855 61.9708C110.219 61.3418 110.191 60.6364 109.809 60.3226L103.162 55.6476C102.989 55.5483 102.791 55.4996 102.591 55.5068V55.5068ZM125.867 55.5068C125.668 55.4996 125.47 55.5484 125.297 55.6476L118.65 60.3226C118.27 60.6364 118.242 61.3418 118.603 61.9708C118.967 62.5957 119.588 62.9229 120.047 62.7513L127.41 59.3155C128.103 58.9145 128.203 57.7732 127.616 56.7527C127.175 55.9856 126.479 55.5216 125.868 55.5068H125.867V55.5068ZM108.684 66.2058C108.591 66.2037 108.498 66.2192 108.41 66.2514L101.051 69.6845C100.361 70.0869 100.256 71.2281 100.846 72.2513C101.434 73.2705 102.471 73.7547 103.161 73.355L109.807 68.6841C110.191 68.3663 110.219 67.6609 109.855 67.0333H109.858C109.564 66.5237 109.096 66.2112 108.684 66.2058V66.2058ZM119.774 66.2058C119.362 66.2112 118.896 66.5237 118.6 67.0346L118.603 67.0333C118.242 67.6609 118.268 68.3663 118.65 68.6828L125.297 73.355C125.986 73.7547 127.024 73.2705 127.615 72.2513C128.201 71.2281 128.102 70.0869 127.409 69.6845L120.048 66.2514C119.961 66.2191 119.868 66.2036 119.774 66.2058V66.2058ZM114.227 69.5665C113.506 69.5665 112.911 69.942 112.832 70.4302L112.118 78.5382C112.118 79.3429 113.053 80 114.228 80C115.407 80 116.343 79.3429 116.343 78.5382L115.627 70.4302C115.547 69.942 114.952 69.5679 114.23 69.5665H114.227Z" fill="black"/>
</svg>
