<svg width="24" height="24" viewBox="0 0 24 24" fill="none" xmlns="http://www.w3.org/2000/svg">
<path fill-rule="evenodd" clip-rule="evenodd" d="M18.649 15.6667C19.4571 16.18 19.8245 17.8667 19.8245 18.4533L20.4122 22.78L21 22.7067L20.4122 18.38C20.4122 18.2333 20.1184 16.0333 18.9429 15.2267C18.5755 15.0067 18.1347 14.7133 17.7673 14.64L17.6939 14.5667L17.4 14.42C17.0327 14.2733 16.5918 14.1267 16.2245 13.98L16.0041 13.9067H15.9306C15.2694 13.76 14.7551 13.54 14.4612 13.4667V12.8067C15.3429 12.1467 15.9306 11.12 15.9306 10.02V9.50667C16.0776 9.58 16.0776 9.58 16.2245 9.58C16.7388 9.58 17.1061 9.14 17.1061 8.7V7.96667C17.1061 7.74667 17.0327 7.52667 16.8857 7.38C17.0327 7.23333 17.0327 7.01333 17.0327 6.86667V6.42667C17.0327 6.20667 16.9592 5.91333 16.8122 5.69333C16.7388 5.62 16.6653 5.54667 16.5184 5.54667C16.4449 4.66667 16.0041 2.24667 13.8735 1.36667C13.4327 1.14667 12.8449 1 12.1837 1H12.0367C11.5224 1 10.8612 1.07333 10.3469 1.22C7.99592 2.1 7.5551 4.66667 7.5551 5.47333C7.40816 5.54667 7.26122 5.62 7.18776 5.69333C7.04082 5.91333 6.96735 6.13333 6.96735 6.42667V6.79333C6.96735 6.94 7.04082 7.16 7.11429 7.30667C6.96735 7.52667 6.89388 7.67333 6.89388 7.89333V8.7C6.89388 9.21333 7.33469 9.58 7.77551 9.58C7.92245 9.58 7.99592 9.58 8.06939 9.50667V10.02C8.06939 11.12 8.58367 12.1467 9.53878 12.8067V13.4667C8.43674 13.76 7.33469 14.0533 6.37959 14.4933C5.86531 14.7133 5.42449 14.9333 4.98367 15.1533C3.88163 15.96 3.58776 18.2333 3.58776 18.3067L3 22.6333L3.58776 22.7067L4.17551 18.4533C4.24898 17.8667 4.61633 16.18 5.42449 15.6667C5.6449 15.52 5.93878 15.3733 6.23265 15.2267V17.8667C5.57143 18.0867 5.13061 18.7467 5.20408 19.4067V22.7067C5.20408 22.8533 5.35102 23 5.49796 23H18.649C18.7959 23 18.9429 22.8533 18.9429 22.7067V19.4067C19.0163 18.7467 18.5755 18.0867 17.9143 17.8667V15.3C18.2082 15.3733 18.4286 15.52 18.649 15.6667ZM16.5918 7.82V8.62667C16.5918 8.77333 16.4449 8.92 16.2245 8.92C16.0776 8.92 16.0041 8.77333 15.9306 8.62667V7.82C15.9306 7.67333 16.0776 7.52667 16.2245 7.45333C16.4449 7.52667 16.5184 7.67333 16.5918 7.82ZM12.4776 1.58667C12.8449 1.58667 13.2122 1.73333 13.5796 1.80667V3.27333C13.2857 3.71333 12.8449 3.93333 12.4776 3.93333V1.58667ZM10.7878 1.80667C11.1551 1.66 11.5224 1.66 11.8898 1.66V4.08C11.449 4.00667 11.0816 3.86 10.7878 3.49333V1.80667ZM8.14286 8.7C8.14286 8.84667 7.99592 8.99333 7.77551 8.99333C7.62857 8.99333 7.5551 8.84667 7.48163 8.7V7.89333C7.48163 7.74667 7.62857 7.6 7.77551 7.52667C7.92245 7.52667 8.06939 7.67333 8.14286 7.82V7.89333V8.7ZM7.84898 6.94C7.77551 6.94 7.70204 6.94 7.70204 6.94C7.5551 6.86667 7.5551 6.86667 7.5551 6.79333V6.42667C7.5551 6.28 7.5551 6.28 7.62857 6.20667C7.62857 6.20667 7.62857 6.20667 7.70204 6.20667H7.84898C7.99592 6.20667 8.14286 6.06 8.14286 5.91333C8.14286 5.76667 8.21633 3.12667 10.2 2.1V3.49333C10.2 3.56667 10.2 3.56667 10.2 3.64C10.5673 4.15333 11.302 4.59333 12.1102 4.52C12.9184 4.59333 13.6531 4.15333 14.0204 3.49333C14.0204 3.42 14.0204 3.42 14.0204 3.34667V2.17333C15.7837 3.34667 15.8571 5.69333 15.8571 5.84C15.8571 5.98667 16.0041 6.13333 16.151 6.13333H16.298H16.3714C16.4449 6.20667 16.4449 6.28 16.4449 6.42667V6.79333C16.4449 6.86667 16.4449 6.94 16.3714 7.01333C16.0776 6.94 15.7837 7.08667 15.5633 7.23333H8.58367C8.2898 7.08667 8.06939 6.94 7.84898 6.94ZM8.73061 10.0933V7.89333H15.3429V10.0933C15.3429 11.6333 14.0204 12.9533 12.4776 12.9533H11.6694C10.0531 12.88 8.73061 11.6333 8.73061 10.0933ZM13.8735 13.1733V13.6867L12.0367 15.96L10.2 13.6133V13.1C10.7143 13.2467 11.1551 13.3933 11.6694 13.3933H12.4776C12.9184 13.4667 13.4327 13.3933 13.8735 13.1733ZM8.43674 14.42C9.02449 14.2733 9.53878 14.1267 9.75918 14.0533L12.0367 16.9133L14.3143 14.0533C14.5347 14.1267 15.1224 14.2 15.7102 14.42V17.8667H8.43674V14.42ZM18.2816 19.4067V22.4133H5.79184V19.4067C5.71837 18.8933 6.01225 18.4533 6.52653 18.3067C6.67347 18.3067 6.74694 18.16 6.74694 18.0133V14.9333C7.11429 14.7867 7.48163 14.7133 7.84898 14.64V18.16C7.84898 18.3067 7.99592 18.38 8.14286 18.38H16.0041C16.151 18.38 16.298 18.2333 16.298 18.0867V14.5667L17.3265 14.9333V18.0133C17.3265 18.16 17.4735 18.3067 17.5469 18.3067C18.0612 18.4533 18.3551 18.8933 18.2816 19.4067ZM6.52653 18.9667H8.14286V19.48H6.52653V18.9667ZM15.9306 18.9667H17.5469V19.48H15.9306V18.9667Z" fill="white"/>
</svg>
