<svg width="24" height="24" viewBox="0 0 24 24" fill="none" xmlns="http://www.w3.org/2000/svg">
<path fill-rule="evenodd" clip-rule="evenodd" d="M11.8067 17.8919C11.2185 17.9653 10.5569 17.8185 10.0423 17.5985C9.89527 17.5251 9.67473 17.5985 9.60121 17.7452C9.5277 17.8919 9.60121 18.112 9.74824 18.1853C9.82176 18.1853 9.89527 18.2587 9.96879 18.2587C9.30715 18.5521 8.71904 19.139 8.49849 19.8726C8.20443 19.139 7.68983 18.6255 7.0282 18.2587C7.68983 17.9653 8.27795 17.3784 8.49849 16.6448C8.57201 16.7915 8.64552 16.9382 8.64552 16.9382C8.71904 17.0849 8.93958 17.1583 9.08661 17.0849C9.23364 17.0116 9.30715 16.8649 9.23364 16.6448C9.0131 16.1313 8.86607 15.5444 8.86607 14.9575C8.86607 14.7375 8.79255 14.5907 8.57201 14.5907C8.35146 14.5907 8.20443 14.6641 8.13092 14.8842C8.13092 14.9575 8.27795 16.7181 7.0282 17.5251C6.44008 17.8185 5.77845 17.9653 5.11682 17.8919C4.89628 17.9653 4.82276 18.112 4.82276 18.332C4.82276 18.4788 4.96979 18.5521 5.11682 18.6255C5.77845 18.5521 6.44008 18.6988 7.10172 19.0656C8.35146 19.8726 8.20443 21.5598 8.20443 21.6332C8.20443 21.8533 8.35146 22 8.57201 22C8.71904 22 8.86607 21.9266 8.93958 21.7799C9.0131 21.6332 8.79255 19.9459 10.0423 19.139C10.6304 18.7722 11.292 18.6255 12.0272 18.6988C12.2477 18.6988 12.3948 18.4788 12.3213 18.332C12.1007 18.0386 11.9537 17.9653 11.8067 17.8919ZM22.6868 11.6564C22.0987 11.583 17.9084 12.1699 16.0705 8.35521C15.4824 7.03475 15.2618 5.64093 15.2618 4.2471C15.1883 4.02703 14.9678 3.88031 14.8208 3.95367C14.6737 4.02703 14.5267 4.17375 14.5267 4.32046V5.12741C14.3797 7.98842 13.0564 10.4826 10.3364 11.2896C9.30715 11.583 8.20443 11.6564 7.10172 11.6564C6.88117 11.7297 6.73414 11.9498 6.80766 12.1699C6.80766 12.3166 6.95469 12.4633 7.10172 12.4633C7.46929 12.5367 10.1893 12.0965 12.2477 13.8571C12.3948 14.0039 12.6153 13.9305 12.6888 13.7838C12.7623 13.6371 12.7623 13.417 12.6153 13.3436C11.8802 12.7568 10.998 12.3166 10.0423 12.0965C12.6153 11.4363 14.2326 9.60232 14.8943 6.96139C15.4824 9.52896 17.0997 11.4363 19.7462 12.0965C17.0997 12.7568 15.4824 14.5907 14.8943 17.2317C14.6737 16.278 14.3061 15.3977 13.718 14.5907C13.6445 14.444 13.424 14.444 13.2769 14.5174C13.1299 14.5907 13.1299 14.8108 13.2034 14.9575C13.424 15.251 13.571 15.5444 13.718 15.8378C14.3061 17.0849 14.5267 18.4788 14.4532 19.8726C14.4532 20.0927 14.6737 20.2394 14.8943 20.2394C15.1148 20.2394 15.2618 20.0193 15.2618 19.7992C15.1883 18.6988 15.3354 15.1042 18.2024 13.417C20.1873 12.2432 22.3928 12.61 22.6868 12.5367C22.9074 12.4633 23.0544 12.2432 22.9809 12.0232C22.9809 11.8031 22.9074 11.6564 22.6868 11.6564ZM8.05741 6.30116C7.83686 6.30116 6.14602 6.59459 5.33736 5.05405C5.11682 4.54054 5.04331 3.95367 5.04331 3.3668C5.04331 3.14672 4.96979 3 4.74925 3C4.5287 3 4.38167 3.07336 4.30816 3.29344C4.30816 3.3668 4.45519 5.12741 3.20544 5.93436C2.61732 6.2278 1.95569 6.37452 1.29406 6.30116C1.14703 6.37452 1 6.52124 1 6.74131C1 6.88803 1.14703 7.03475 1.29406 7.03475C1.44109 7.03475 2.39678 6.88803 3.20544 7.40154C3.86707 7.91506 4.30816 8.72201 4.30816 9.60232C4.30816 9.74903 4.30816 9.89575 4.30816 10.0425C4.38167 10.2625 4.60222 10.3359 4.74925 10.2625C4.89628 10.1892 4.96979 10.1158 4.96979 9.96911C4.96979 9.38224 5.04331 8.79537 5.33736 8.20849C5.48439 8.13513 5.41088 7.91506 5.19033 7.8417C5.04331 7.76834 4.82276 7.8417 4.74925 7.98842C4.74925 8.06178 4.67573 8.13514 4.67573 8.28185C4.38167 7.54826 3.86707 6.96139 3.20544 6.66795C3.86707 6.37452 4.45519 5.78764 4.67573 5.05405C4.96979 5.78764 5.48439 6.30116 6.14602 6.66795C6.14602 6.66795 6.07251 6.74131 5.999 6.74131C5.77845 6.88803 5.77845 7.03475 5.85197 7.18147C5.92548 7.32819 6.14602 7.40154 6.29305 7.32819C6.88117 7.10811 7.46929 6.96139 8.05741 7.03475C8.27795 7.03475 8.42498 6.81467 8.35146 6.66795C8.35146 6.44788 8.20444 6.37452 8.05741 6.30116Z" fill="white"/>
</svg>
