<svg width="24" height="24" viewBox="0 0 24 24" fill="none" xmlns="http://www.w3.org/2000/svg">
<path fill-rule="evenodd" clip-rule="evenodd" d="M21.4227 12.831C22.4238 11.7837 22.1569 9.75891 20.3548 9.75891H15.7494C15.9496 8.78143 16.1499 7.10574 16.1499 6.9661C16.0831 5.49987 15.1487 3.68454 15.0819 3.61472C14.8817 3.26561 14.0808 2.84669 13.2131 3.05615C12.1452 3.26561 12.0117 3.96382 12.0117 4.17328C12.0117 4.17328 12.0784 6.12825 12.0784 6.68682C11.5445 7.87376 9.74237 11.0157 9.14167 11.2251C9.00818 11.1553 8.87469 11.0855 8.67446 11.0855H2.86768C2.40047 11.0855 2 11.5044 2 11.9932V20.232C2.06674 20.6509 2.40047 21 2.86768 21H8.1405C8.60771 21 9.00818 20.6509 9.00818 20.1622V19.8829C9.07493 19.8829 9.20842 19.8829 9.27516 19.9527C9.67563 20.232 10.0761 20.4414 10.5433 20.4414H18.3524C21.2892 20.4414 20.9555 17.7883 20.6885 17.4392C21.2892 16.8108 21.4227 15.9031 21.089 15.1351C21.6229 14.5067 21.8231 13.599 21.4227 12.831ZM7.94027 20.1622H2.86768V11.9233H7.94027V20.1622ZM20.0878 12.7612L20.021 12.9707C21.3559 13.3896 20.6217 14.9256 19.6873 15.0653L19.6206 15.2747C20.8887 15.6238 20.288 17.2297 19.2869 17.3693L19.2201 17.5788C20.288 17.7883 20.021 19.6036 18.4192 19.6036H10.4766C9.94261 19.6036 9.40865 18.9752 9.00818 18.9752H8.67446V12.6914C9.14167 12.4121 9.54214 12.1328 10.0094 11.7837C10.6101 11.295 12.9461 7.38502 12.9461 6.89628C12.9461 6.40753 12.8794 4.31292 12.8794 4.31292C12.8794 4.31292 13.3466 3.68454 14.4145 4.17328C14.4145 4.17328 15.2822 5.84897 15.3489 7.17556C15.3489 7.17556 14.9485 9.89855 14.7482 10.8062H20.288C21.6229 10.5968 21.3559 12.5517 20.0878 12.7612Z" fill="white"/>
</svg>
