<svg width="24" height="24" viewBox="0 0 24 24" fill="none" xmlns="http://www.w3.org/2000/svg">
<path fill-rule="evenodd" clip-rule="evenodd" d="M2.83894 9.86747H3.20673V15L2.25048 16.8795C2.10337 17.0241 2.10337 17.3133 2.10337 17.5301V19.4819C2.10337 20.3494 2.76538 21 3.57452 21H11.0038C11.8865 21 12.5486 20.3494 12.475 19.4819V17.241C12.475 17.0964 12.4014 17.0964 12.3279 17.0241L10.2683 15C10.1212 14.7831 9.75337 14.6386 9.45914 14.7108H8.65C8.50288 14.7108 8.28221 14.5663 8.28221 14.3494V12.1084H8.65C9.23846 12.1084 9.75337 11.6024 9.75337 10.9518V9.79518H13.799C14.3139 9.79518 14.6817 9.50602 14.8288 9.07229H16.7413C17.7712 9.07229 18.6538 8.49398 19.0216 7.55422H21.8904C22.4788 7.55422 23.0673 7.04819 22.9938 6.39759C22.9938 5.81928 22.4788 5.31325 21.8904 5.31325H19.0216C18.5803 4.44578 17.6976 3.79518 16.7413 3.79518H14.8288C14.8288 3.28916 14.3875 3 13.9462 3H2.83894C1.80913 3 1 3.86747 1 4.87952V7.84337C1.07356 9 1.80913 9.86747 2.83894 9.86747ZM11.0774 20.2771H3.64808C3.20673 20.2771 2.9125 19.9157 2.9125 19.5542V17.6024C2.9125 17.4578 2.9125 17.3855 2.98606 17.241L3.79519 15.7229L5.41346 17.3855C5.56058 17.6024 5.92837 17.747 6.2226 17.6747H11.8865V19.5542C11.813 19.988 11.4452 20.2771 11.0774 20.2771ZM8.79712 15.4337H9.60625C9.75337 15.4337 9.75337 15.506 9.82692 15.5783L11.2245 16.9518H6.14904C6.00192 16.9518 6.00192 16.8795 5.92837 16.8072L4.01587 14.9277V9.86747H5.85481V12.8313C5.85481 13.8434 6.66394 14.7108 7.69375 14.7108H7.76731C7.91442 15.1446 8.35577 15.4337 8.79712 15.4337ZM7.69375 9.86747V13.988C7.10529 13.988 6.59039 13.4819 6.59039 12.8313V9.86747C6.66394 9.86747 7.69375 9.86747 7.69375 9.86747ZM9.1649 10.9518C9.1649 11.0964 9.01779 11.3133 8.79712 11.3133H8.42933V9.79518H9.1649V10.9518ZM22.5524 6.46988C22.5524 6.61446 22.4788 6.61446 22.4053 6.68675C22.3317 6.75904 22.2582 6.83133 22.1846 6.83133H19.5365C19.5365 6.68675 19.5365 6.61446 19.6101 6.46988C19.6101 6.3253 19.6101 6.25301 19.5365 6.10843H22.1846C22.4053 6.10843 22.5524 6.3253 22.5524 6.46988ZM18.7274 5.89157C18.8745 6.3253 18.8745 6.75904 18.7274 7.12048C18.5803 7.6988 17.9918 8.20482 17.3298 8.3494V4.73494C17.9918 4.80723 18.5067 5.31325 18.7274 5.89157ZM16.5942 8.3494H15.1231V4.66265H16.5942V8.3494ZM1.73558 5.0241C1.73558 4.44578 2.25048 3.86747 2.83894 3.86747H13.9462C14.0933 3.86747 14.3139 4.01205 14.3139 4.22892V4.59036H13.5784C13.4313 4.59036 13.2106 4.73494 13.2106 4.95181C13.2106 5.16867 13.3577 5.31325 13.5784 5.31325H14.3875V6.18072H13.6519C13.5048 6.18072 13.2841 6.3253 13.2841 6.54217C13.2841 6.75904 13.4313 6.90361 13.6519 6.90361H14.3875V7.62651H13.6519C13.5048 7.62651 13.2841 7.77108 13.2841 7.98795C13.2841 8.13253 13.4313 8.3494 13.6519 8.3494H14.3875V8.71084C14.3875 8.85542 14.2404 9.07229 14.0197 9.07229H2.83894C2.25048 9.07229 1.73558 8.56626 1.73558 7.91566C1.73558 7.98795 1.73558 5.0241 1.73558 5.0241ZM3.28029 5.38554H4.75144C4.89856 5.38554 5.11923 5.24096 5.11923 5.0241C5.11923 4.80723 4.89856 4.66265 4.75144 4.66265H3.28029C3.05962 4.66265 2.83894 4.80723 2.83894 5.0241C2.83894 5.24096 3.05962 5.38554 3.28029 5.38554ZM3.28029 6.83133H4.75144C4.89856 6.83133 5.11923 6.68675 5.11923 6.46988C5.11923 6.3253 4.97212 6.10843 4.75144 6.10843H3.28029C3.05962 6.10843 2.83894 6.3253 2.9125 6.46988C2.9125 6.75904 3.05962 6.83133 3.28029 6.83133Z" fill="white"/>
</svg>
