<svg width="24" height="24" viewBox="0 0 24 24" fill="none" xmlns="http://www.w3.org/2000/svg">
<path fill-rule="evenodd" clip-rule="evenodd" d="M21.481 9.38201L22.1393 8.74318C22.5051 8.38828 22.5051 7.74945 22.1393 7.39454L21.4079 6.68474C21.0421 6.32983 20.3838 6.32983 20.0181 6.68474L19.3598 7.32356C18.482 6.75572 17.5311 6.32983 16.5071 6.11689V5.19414H16.8728C17.3848 5.19414 17.8237 4.76825 17.8237 4.27139V2.92275C17.8237 2.42589 17.3848 2 16.8728 2H12.484C11.972 2 11.5331 2.42589 11.5331 2.92275V4.20041C11.5331 4.69727 11.972 5.12316 12.484 5.12316H12.8497V6.04591C11.8257 6.25885 10.8748 6.68474 9.99702 7.25258L9.3387 6.61375C9.04612 6.32983 8.3878 6.32983 8.02207 6.68474L7.2906 7.39454C6.92487 7.74945 6.92487 8.38828 7.2906 8.74318L7.43689 8.88514H4.36474C4.1453 8.88514 3.92586 9.09808 3.92586 9.31103C3.92586 9.52397 4.1453 9.73691 4.36474 9.73691H7.72948C7.43689 10.2338 7.14431 10.8016 6.92487 11.3695H1.43888C1.21944 11.2985 1 11.5114 1 11.7244C1 11.9373 1.21944 12.1503 1.43888 12.1503H6.70543C6.55914 12.6471 6.48599 13.215 6.48599 13.7828H3.77957C3.56013 13.7828 3.34069 13.9958 3.34069 14.2087C3.34069 14.4216 3.56013 14.6346 3.77957 14.6346H6.55914C6.63228 15.2024 6.70543 15.6993 6.85172 16.2671H3.1944C2.97496 16.2671 2.75552 16.4801 2.75552 16.693C2.75552 16.906 2.97496 17.1189 3.1944 17.1189H7.14431C8.89982 21.1648 13.8006 23.0813 17.97 21.3778C22.1393 19.6742 24.1143 14.9185 22.3588 10.8726C22.0662 10.3048 21.7736 9.80789 21.481 9.38201ZM20.6033 7.25258C20.6764 7.1816 20.7496 7.1816 20.7496 7.25258L21.481 7.96239C21.5542 8.03337 21.5542 8.10435 21.481 8.10435L20.8959 8.6722C20.6033 8.31729 20.3107 8.03337 19.9449 7.74945L20.6033 7.25258ZM12.4109 4.20041V2.92275C12.4109 2.85177 12.484 2.85177 12.484 2.85177H16.8728C16.9459 2.85177 16.9459 2.92275 16.9459 2.92275V4.20041C16.9459 4.27139 16.8728 4.27139 16.8728 4.27139H12.484C12.4109 4.34237 12.4109 4.27139 12.4109 4.20041ZM13.7275 5.19414H15.6293V5.97493C14.971 5.90395 14.3127 5.90395 13.7275 5.97493V5.19414ZM7.87577 7.96239L8.60724 7.25258C8.68038 7.1816 8.75353 7.1816 8.75353 7.25258L9.3387 7.82043C9.04612 8.10435 8.68038 8.38828 8.3878 8.74318L7.87577 8.17533C7.80263 8.10435 7.80263 8.03337 7.87577 7.96239ZM14.6784 21.1648C10.5822 21.1648 7.21745 17.9707 7.21745 13.9958C7.21745 10.0208 10.509 6.75572 14.6053 6.75572C18.7015 6.75572 22.0662 9.87887 22.0662 13.9248C22.0662 13.9248 22.0662 13.9248 22.0662 13.9958C22.0662 17.8997 18.7746 21.1648 14.6784 21.1648ZM17.5311 10.5887L15.483 12.5761C15.2636 12.4342 14.971 12.3632 14.6784 12.3632C13.8006 12.3632 13.0692 13.073 13.0692 13.9248C13.0692 14.7766 13.8006 15.4864 14.6784 15.4864C15.5562 15.4864 16.2876 14.7766 16.2876 13.9248C16.2876 13.6409 16.2145 13.3569 16.0682 13.144L18.1163 11.1565C18.2626 11.0146 18.2626 10.7306 18.1163 10.5887C17.97 10.4467 17.6774 10.4467 17.5311 10.5887ZM14.6784 14.7056C14.2395 14.7056 13.8738 14.3507 13.8738 13.9958C13.8738 13.5699 14.2395 13.215 14.6053 13.215C15.0441 13.215 15.4099 13.5699 15.4099 13.9248C15.483 14.3507 15.1173 14.7056 14.6784 14.7056ZM14.6784 8.53024C14.8247 8.53024 14.8978 8.45926 14.971 8.38828C15.1173 8.24631 15.1173 7.96239 14.971 7.82043C14.8247 7.67847 14.5321 7.67847 14.3858 7.82043C14.2395 7.96239 14.2395 8.24631 14.3858 8.38828C14.459 8.45926 14.6053 8.53024 14.6784 8.53024ZM14.6784 19.3903C14.5321 19.3903 14.459 19.4613 14.3858 19.5323C14.2395 19.6742 14.2395 19.9582 14.3858 20.1001C14.5321 20.2421 14.8247 20.2421 14.971 20.1001C15.1173 19.9582 15.1173 19.6742 14.971 19.5323C14.8978 19.3903 14.8247 19.3903 14.6784 19.3903ZM10.509 9.38201C10.3628 9.38201 10.2896 9.45299 10.2165 9.52397C10.0702 9.66593 10.0702 9.94985 10.2165 10.0918C10.3628 10.2338 10.6553 10.2338 10.8016 10.0918C10.9479 9.94985 10.9479 9.66593 10.8016 9.52397C10.7285 9.45299 10.5822 9.38201 10.509 9.38201ZM18.9209 17.6868C18.7746 17.6868 18.7015 17.7577 18.6283 17.8287C18.482 17.9707 18.482 18.2546 18.6283 18.3966C18.7015 18.4676 18.8477 18.5385 18.9209 18.5385C19.0672 18.5385 19.1403 18.4676 19.2135 18.3966C19.3598 18.2546 19.3598 17.9707 19.2135 17.8287C19.1403 17.6868 19.0672 17.6868 18.9209 17.6868ZM10.509 17.6868C10.3628 17.6868 10.2896 17.7577 10.2165 17.8287C10.0702 17.9707 10.0702 18.2546 10.2165 18.3966C10.3628 18.5385 10.6553 18.5385 10.8016 18.3966C10.9479 18.2546 10.9479 17.9707 10.8016 17.8287C10.7285 17.6868 10.5822 17.6868 10.509 17.6868ZM8.75353 13.4989C8.53409 13.4989 8.31465 13.7118 8.31465 13.9248C8.31465 14.0667 8.3878 14.1377 8.46094 14.2087C8.60724 14.3507 8.89982 14.3507 9.04612 14.2087C9.19241 14.0667 9.19241 13.7828 9.04612 13.6409C8.97297 13.5699 8.82668 13.4989 8.75353 13.4989ZM20.969 13.6409C20.8227 13.4989 20.5301 13.4989 20.3838 13.6409C20.2375 13.7828 20.2375 14.0667 20.3838 14.2087C20.5301 14.3507 20.8227 14.3507 20.969 14.2087C21.1884 14.0667 21.1884 13.7828 20.969 13.6409ZM1.43888 16.1962C1.29259 16.1962 1.21944 16.2671 1.14629 16.3381C1 16.4801 1 16.764 1.14629 16.906C1.21944 16.977 1.36573 17.0479 1.43888 17.0479C1.58517 17.0479 1.65832 16.977 1.73147 16.906C1.87776 16.764 1.87776 16.4801 1.73147 16.3381C1.65832 16.2671 1.51203 16.1962 1.43888 16.1962ZM20.5301 12.6471C20.7496 12.5761 20.8959 12.3632 20.8227 12.1503C20.2375 10.0918 18.5552 8.53024 16.5071 7.96239C16.2876 7.89141 16.0682 8.03337 15.995 8.24631C15.9219 8.45926 16.0682 8.6722 16.2876 8.74318C18.1163 9.24005 19.5061 10.6597 20.0181 12.3632C20.0912 12.5052 20.2375 12.6471 20.457 12.6471C20.457 12.7181 20.5301 12.6471 20.5301 12.6471Z" fill="white"/>
</svg>
