<svg width="24" height="24" viewBox="0 0 24 24" fill="none" xmlns="http://www.w3.org/2000/svg">
<path fill-rule="evenodd" clip-rule="evenodd" d="M11.9726 21C11.8994 21 11.7531 20.9287 11.7531 20.8574L1.07315 8.73338C1 8.66206 1 8.44811 1.07315 8.37679L5.09643 3.24193C5.09643 3.17061 5.24273 3.0993 5.31588 3.0993H18.5561C18.6293 3.0993 18.7756 3.17061 18.8487 3.24193L22.9451 8.30548C23.0183 8.44811 23.0183 8.59075 22.9451 8.73338L12.192 20.8574C12.192 21 12.0457 21 11.9726 21ZM1.7315 8.44811L11.9726 20.0729L22.2136 8.44811L18.483 3.66984H5.46218L1.7315 8.44811ZM22.5794 8.8047H1.36575C1.1463 8.8047 1 8.66206 1 8.51943C1 8.37679 1.1463 8.16284 1.36575 8.16284H22.5794C22.7257 8.16284 22.9451 8.30548 22.9451 8.51943C22.9451 8.66206 22.7988 8.8047 22.5794 8.8047ZM11.9726 21C11.7531 20.9287 11.6068 20.786 11.68 20.5721L15.6301 8.44811C15.7032 8.30548 15.8495 8.16284 16.069 8.23416C16.2153 8.30548 16.3616 8.44811 16.2884 8.66206L12.2652 20.786C12.2652 20.9287 12.1189 21 11.9726 21ZM11.9726 21C11.8263 21 11.68 20.9287 11.68 20.786L7.65669 8.66206C7.58354 8.37679 7.72984 8.23416 7.87614 8.16284C8.09559 8.16284 8.2419 8.23416 8.31505 8.37679L12.3383 20.5008C12.4115 20.6434 12.2652 20.8574 12.1189 20.9287C12.0457 21 11.9726 21 11.9726 21ZM7.94929 8.8047C7.87614 8.8047 7.72984 8.73338 7.65669 8.66206L5.02328 3.5272C4.95012 3.31325 5.02327 3.17061 5.16958 3.02798C5.31588 2.95666 5.53533 3.02798 5.60848 3.17061L8.31505 8.37679C8.3882 8.51943 8.31505 8.73338 8.16874 8.8047C8.09559 8.8047 8.02244 8.8047 7.94929 8.8047ZM7.94929 8.8047C7.87614 8.8047 7.80299 8.8047 7.72984 8.73338C7.65669 8.66206 7.58354 8.44811 7.72984 8.30548L11.7531 3.17061C11.8994 3.02798 12.0457 3.02798 12.192 3.0993C12.3383 3.17061 12.3383 3.38457 12.2652 3.5272L8.24189 8.66206C8.16874 8.73338 8.09559 8.8047 7.94929 8.8047ZM15.9958 8.8047C15.9227 8.8047 15.7764 8.73338 15.7032 8.66206L11.68 3.5272C11.6068 3.38457 11.6068 3.17061 11.7531 3.0993C11.8994 2.95666 12.1189 3.02798 12.192 3.17061L16.2153 8.30548C16.3616 8.44811 16.2884 8.66206 16.1421 8.73338C16.069 8.8047 16.069 8.8047 15.9958 8.8047ZM15.9958 8.8047C15.9227 8.8047 15.9227 8.8047 15.8495 8.8047C15.6301 8.66206 15.5569 8.51943 15.6301 8.37679L18.2635 3.24193C18.4098 3.02798 18.6293 2.95666 18.7756 3.02798C18.9219 3.0993 18.995 3.31325 18.9219 3.45588L16.2884 8.59075C16.2153 8.73338 16.069 8.8047 15.9958 8.8047Z" fill="white"/>
</svg>
