<svg width="200" height="150" viewBox="0 0 200 150" fill="none" xmlns="http://www.w3.org/2000/svg">
<path d="M2 25H198V137H160.182L159.689 50.8381H103.9L103.999 137H2V25Z" stroke="#7A797B" stroke-width="2"/>
<path d="M78 51H25V94H78V51Z" stroke="#7A797B" stroke-width="2"/>
<path d="M189 14H186.997V30H189V14Z" fill="#7A797B"/>
<path d="M178 19H176V30H178V19Z" fill="#7A797B"/>
<path d="M168 15H166V31H168V15Z" fill="#7A797B"/>
<path d="M158 19H156V30H158V19Z" fill="#7A797B"/>
<path d="M148 15H146V31H148V15Z" fill="#7A797B"/>
<path d="M137 19H135V30H137V19Z" fill="#7A797B"/>
<path d="M127 15H125V31H127V15Z" fill="#7A797B"/>
<path d="M117 19H115V30H117V19Z" fill="#7A797B"/>
<path d="M107 15H105V31H107V15Z" fill="#7A797B"/>
<path d="M96 19H94V30H96V19Z" fill="#7A797B"/>
<path d="M86 15H84V31H86V15Z" fill="#7A797B"/>
<path d="M76 19H74V30H76V19Z" fill="#7A797B"/>
<path d="M65 15H63V31H65V15Z" fill="#7A797B"/>
<path d="M55 19H53V30H55V19Z" fill="#7A797B"/>
<path d="M45 15H43V31H45V15Z" fill="#7A797B"/>
<path d="M24 15H22V31H24V15Z" fill="#7A797B"/>
<path d="M14 19H12V30H14V19Z" fill="#7A797B"/>
<path d="M35 19H33V30H35V19Z" fill="#7A797B"/>
</svg>
